# Blender v3.0.1 OBJ File: ''
# www.blender.org
mtllib ammobelthelm.mtl
o ARVN_Headgear_M1Bare_Bullets.mo_ARVN_Headgear_M1Bare_Bullets.md
v -9.763131 10.902027 -15.006572
v -8.541666 16.840794 -13.887991
v -8.420855 16.470749 -15.645044
v -9.942197 11.267222 -12.718823
v -8.008213 17.560936 -10.679632
v -7.556437 12.955924 -6.046546
v -6.522821 18.282446 -8.072810
v -9.322025 12.052869 -9.147615
v -9.635352 11.652687 -10.940914
v -8.274939 17.200867 -12.283811
v 0.598913 14.935076 -25.715595
v 4.638361 9.636622 -25.777430
v 0.915685 9.237474 -27.052792
v 3.733433 15.233506 -24.617294
v 7.985023 16.706474 -16.125397
v 9.437311 11.616245 -13.501308
v 9.642756 11.264540 -15.780042
v 7.803267 17.074251 -14.373117
v 7.621510 17.442032 -12.620842
v 9.230708 11.980413 -11.215720
v -8.300044 16.100704 -17.402102
v -9.584914 10.549310 -17.287439
v -2.979292 9.353261 -26.374634
v -2.681708 14.994877 -25.120224
v -4.294215 18.738930 -6.377337
v -4.687185 13.668678 -3.918026
v -1.132627 19.019096 -5.566578
v -1.140517 13.966790 -3.068732
v -8.308756 10.022260 -19.129436
v -8.896957 10.247770 -19.496952
v -8.946798 10.291659 -17.017872
v -9.101956 10.617700 -14.856730
v -9.260942 10.950839 -12.693661
v -6.987549 15.615399 -21.346310
v -8.206918 9.964777 -21.732346
v -7.643795 15.858050 -19.374205
v 7.082535 17.772133 -11.079827
v 8.623305 12.331871 -9.509486
v 6.543562 18.102230 -9.538813
v 8.006035 12.697436 -7.789144
v 5.717558 13.449690 -5.005901
v 4.621416 18.696987 -7.199132
v 2.128558 18.977844 -5.873809
v 2.507317 13.936298 -3.353998
v 4.342255 9.466282 -25.076612
v 7.352949 10.038330 -23.452053
v 6.883239 9.838091 -22.880823
v 0.860430 9.094742 -26.280268
v 2.318272 13.438451 -3.950817
v 5.295372 12.984894 -5.484433
v -1.073466 13.468872 -3.687750
v 8.433206 10.355169 -19.983635
v 9.331202 10.925819 -18.067915
v 8.711250 10.655369 -17.795116
v 9.020249 10.605592 -20.381783
v 7.341788 16.148420 -20.222927
v 7.663405 16.427446 -18.174164
v 5.895786 15.560847 -22.765759
v 8.579082 11.614450 -11.295052
v 8.004344 11.945589 -9.688468
v 7.426929 12.281940 -8.081096
v -5.656270 9.371647 -23.863888
v -6.044850 9.539959 -24.502407
v -7.672118 9.756084 -21.246248
v 8.783695 11.283009 -13.454544
v 8.991253 10.958918 -15.611577
v -5.124051 15.150932 -23.629684
v -2.784098 9.201197 -25.635298
v -8.969265 11.314207 -11.019152
v -8.675462 11.682965 -9.343477
v -7.031769 12.526349 -6.450847
v -4.371325 13.189611 -4.475262
vt 0.878400 0.045400
vt 0.819800 0.064000
vt 0.819800 0.045400
vt 0.878400 0.064000
vt 0.819800 0.036100
vt 0.878400 0.064000
vt 0.819800 0.064000
vt 0.878400 0.036100
vt 0.878400 0.022900
vt 0.819800 0.022900
vt 0.878400 0.007800
vt 0.819800 0.007800
vt 0.819800 0.036100
vt 0.878400 0.064000
vt 0.878400 0.036100
vt 0.819800 0.064000
vt 0.819800 0.017600
vt 0.878400 0.036100
vt 0.878400 0.017600
vt 0.819800 0.036100
vt 0.878400 0.045400
vt 0.819800 0.064000
vt 0.878400 0.064000
vt 0.819800 0.045400
vt 0.819800 0.017600
vt 0.878400 0.036100
vt 0.819800 0.036100
vt 0.878400 0.017600
vt 0.878400 0.064000
vt 0.819800 0.064000
vt 0.878400 0.007800
vt 0.819800 0.036100
vt 0.819800 0.007800
vt 0.878400 0.036100
vt 0.819800 0.064000
vt 0.878400 0.064000
vt 0.658200 0.994900
vt 0.640100 0.986200
vt 0.658200 0.986200
vt 0.640100 0.994900
vt 0.623000 0.986200
vt 0.623000 0.994900
vt 0.605500 0.986200
vt 0.605500 0.994900
vt 0.819800 0.026400
vt 0.878400 0.026400
vt 0.878400 0.045400
vt 0.819800 0.045400
vt 0.819800 0.064000
vt 0.878400 0.064000
vt 0.819800 0.022900
vt 0.878400 0.007800
vt 0.819800 0.007800
vt 0.878400 0.022900
vt 0.819800 0.036100
vt 0.878400 0.036100
vt 0.878400 0.064000
vt 0.819800 0.064000
vt 0.819800 0.036100
vt 0.878400 0.007800
vt 0.819800 0.007800
vt 0.878400 0.036100
vt 0.632300 0.994900
vt 0.605500 0.986200
vt 0.605500 0.994900
vt 0.632300 0.986200
vt 0.658200 0.994900
vt 0.658200 0.986200
vt 0.658200 0.986200
vt 0.632300 0.994900
vt 0.658200 0.994900
vt 0.632300 0.986200
vt 0.605500 0.986200
vt 0.605500 0.994900
vt 0.623000 0.994900
vt 0.605500 0.986200
vt 0.605500 0.994900
vt 0.623000 0.986200
vt 0.649900 0.994900
vt 0.649900 0.986200
vt 0.819800 0.026400
vt 0.878400 0.045400
vt 0.878400 0.026400
vt 0.819800 0.045400
vt 0.819800 0.064000
vt 0.878400 0.064000
vt 0.819800 0.007800
vt 0.878400 0.036100
vt 0.878400 0.007800
vt 0.819800 0.036100
vt 0.878400 0.064000
vt 0.819800 0.064000
vt 0.658200 0.994900
vt 0.658200 0.986200
vt 0.645000 0.986200
vt 0.645000 0.994900
vt 0.632300 0.994900
vt 0.632300 0.986200
vt 0.605500 0.994900
vt 0.605500 0.986200
vt 0.649900 0.994900
vt 0.623000 0.986200
vt 0.649900 0.986200
vt 0.623000 0.994900
vt 0.605500 0.986200
vt 0.605500 0.994900
vt 0.623000 0.994900
vt 0.605500 0.986200
vt 0.605500 0.994900
vt 0.623000 0.986200
vt 0.640100 0.994900
vt 0.640100 0.986200
vt 0.658200 0.994900
vt 0.658200 0.986200
vt 0.819800 0.036100
vt 0.878400 0.064000
vt 0.819800 0.064000
vt 0.878400 0.036100
vt 0.819800 0.007800
vt 0.878400 0.007800
vt 0.632300 0.986200
vt 0.632300 0.994900
vt 0.605500 0.986200
vt 0.605500 0.994900
vt 0.658200 0.994900
vt 0.645000 0.986200
vt 0.658200 0.986200
vt 0.645000 0.994900
vt 0.632300 0.994900
vt 0.632300 0.986200
vt 0.605500 0.994900
vt 0.605500 0.986200
vt 0.632300 0.994900
vt 0.658200 0.986200
vt 0.658200 0.994900
vt 0.632300 0.986200
vn -0.8961 -0.4438 -0.0009
vn -0.9700 0.2431 -0.0047
vn -0.9688 0.2206 -0.1131
vn -0.9047 -0.4095 0.1178
vn -0.9202 0.2936 0.2591
vn -0.6794 -0.2688 0.6828
vn -0.7444 0.3587 0.5632
vn -0.8509 -0.3484 0.3932
vn -0.8864 -0.3958 0.2402
vn -0.9599 0.2610 0.1018
vn 0.0672 0.2355 -0.9695
vn 0.4744 -0.4813 -0.7371
vn 0.0860 -0.5183 -0.8509
vn 0.4670 0.2511 -0.8479
vn 0.9552 0.2887 -0.0658
vn 0.9156 -0.3764 0.1411
vn 0.9247 -0.3797 0.0289
vn 0.9556 0.2921 0.0378
vn 0.9383 0.3140 0.1449
vn 0.9031 -0.3422 0.2595
vn -0.9520 0.2177 -0.2154
vn -0.8873 -0.4471 -0.1131
vn -0.3171 -0.5107 -0.7991
vn -0.3466 0.2208 -0.9117
vn -0.4439 0.4182 0.7925
vn -0.3877 -0.2038 0.8990
vn -0.0864 0.4477 0.8900
vn -0.0698 -0.1888 0.9795
vn -0.3651 -0.9309 0.0102
vn -0.8543 -0.4780 -0.2044
vn -0.3960 -0.9162 0.0609
vn -0.4143 -0.9036 0.1090
vn -0.4193 -0.8888 0.1847
vn -0.8485 0.2127 -0.4846
vn -0.8058 -0.4602 -0.3727
vn -0.9190 0.2125 -0.3320
vn 0.9105 0.3306 0.2484
vn 0.8650 -0.3306 0.3775
vn 0.8444 0.3592 0.3974
vn 0.8027 -0.2869 0.5228
vn 0.5828 -0.2218 0.7817
vn 0.6191 0.4094 0.6701
vn 0.2830 0.4452 0.8495
vn 0.2571 -0.1798 0.9495
vn 0.2091 -0.9668 -0.1468
vn 0.7251 -0.4542 -0.5177
vn 0.3151 -0.9462 -0.0736
vn 0.0505 -0.9827 -0.1779
vn 0.1160 -0.7806 0.6142
vn 0.2631 -0.7977 0.5427
vn -0.0200 -0.7801 0.6253
vn 0.4049 -0.9141 0.0231
vn 0.9086 -0.4124 -0.0662
vn 0.4268 -0.9014 0.0723
vn 0.8857 -0.3973 -0.2401
vn 0.8955 0.2776 -0.3479
vn 0.9413 0.2817 -0.1861
vn 0.7254 0.2640 -0.6357
vn 0.4500 -0.8565 0.2529
vn 0.4298 -0.8410 0.3287
vn 0.3854 -0.8266 0.4101
vn -0.2291 -0.9664 -0.1162
vn -0.6001 -0.5035 -0.6216
vn -0.3349 -0.9416 -0.0349
vn 0.4579 -0.8711 0.1774
vn 0.4482 -0.8848 0.1271
vn -0.6351 0.2134 -0.7424
vn -0.1118 -0.9787 -0.1719
vn -0.4124 -0.8723 0.2627
vn -0.3824 -0.8552 0.3499
vn -0.2847 -0.8181 0.4997
vn -0.1522 -0.7906 0.5931
usemtl M_ARVN_Gear_B_INST
s 1
f 1/1/1 2/2/2 3/3/3
f 1/1/1 4/4/4 2/2/2
f 5/5/5 6/6/6 7/7/7
f 5/5/5 8/8/8 6/6/6
f 9/9/9 8/8/8 5/5/5
f 9/9/9 5/5/5 10/10/10
f 4/11/4 9/9/9 10/10/10
f 4/11/4 10/10/10 2/12/2
f 11/13/11 12/14/12 13/15/13
f 11/13/11 14/16/14 12/14/12
f 15/17/15 16/18/16 17/19/17
f 15/17/15 18/20/18 16/18/16
f 16/21/16 19/22/19 20/23/20
f 16/21/16 18/24/18 19/22/19
f 21/25/21 1/26/1 3/27/3
f 21/25/21 22/28/22 1/26/1
f 11/13/11 23/29/23 24/30/24
f 11/13/11 13/15/13 23/29/23
f 6/31/6 25/32/25 7/33/7
f 6/31/6 26/34/26 25/32/25
f 26/34/26 27/35/27 25/32/25
f 26/34/26 28/36/28 27/35/27
f 29/37/29 22/38/22 30/39/30
f 29/37/29 31/40/31 22/38/22
f 31/40/31 1/41/1 22/38/22
f 31/40/31 32/42/32 1/41/1
f 32/42/32 4/43/4 1/41/1
f 32/42/32 33/44/33 4/43/4
f 34/45/34 35/46/35 30/47/30
f 34/45/34 30/47/30 36/48/36
f 30/47/30 21/49/21 36/48/36
f 30/47/30 22/50/22 21/49/21
f 37/51/37 20/52/20 19/53/19
f 37/51/37 38/54/38 20/52/20
f 39/55/39 38/54/38 37/51/37
f 39/55/39 40/56/40 38/54/38
f 39/55/39 41/57/41 40/56/40
f 39/55/39 42/58/42 41/57/41
f 43/59/43 41/60/41 42/61/42
f 43/59/43 44/62/44 41/60/41
f 27/35/27 44/62/44 43/59/43
f 27/35/27 28/36/28 44/62/44
f 45/63/45 46/64/46 47/65/47
f 45/63/45 12/66/12 46/64/46
f 48/67/48 12/66/12 45/63/45
f 48/67/48 13/68/13 12/66/12
f 41/69/41 49/70/49 50/71/50
f 41/69/41 44/72/44 49/70/49
f 49/70/49 44/72/44 28/73/28
f 49/70/49 28/73/28 51/74/51
f 52/75/52 53/76/53 54/77/54
f 52/75/52 55/78/55 53/76/53
f 47/79/47 55/78/55 52/75/52
f 47/79/47 46/80/46 55/78/55
f 56/81/56 53/82/53 55/83/55
f 56/81/56 57/84/57 53/82/53
f 15/85/15 53/82/53 57/84/57
f 15/85/15 17/86/17 53/82/53
f 14/87/14 46/88/46 12/89/12
f 14/87/14 58/90/58 46/88/46
f 58/90/58 55/91/55 46/88/46
f 58/90/58 56/92/56 55/91/55
f 59/93/59 20/94/20 38/95/38
f 59/93/59 38/95/38 60/96/60
f 38/95/38 61/97/61 60/96/60
f 38/95/38 40/98/40 61/97/61
f 40/98/40 50/99/50 61/97/61
f 40/98/40 41/100/41 50/99/50
f 62/101/62 35/102/35 63/103/63
f 62/101/62 64/104/64 35/102/35
f 64/104/64 30/105/30 35/102/35
f 64/104/64 29/106/29 30/105/30
f 65/107/65 20/108/20 59/109/59
f 65/107/65 16/110/16 20/108/20
f 66/111/66 16/110/16 65/107/65
f 66/111/66 17/112/17 16/110/16
f 54/113/54 17/112/17 66/111/66
f 54/113/54 53/114/53 17/112/17
f 67/115/67 35/116/35 34/117/34
f 67/115/67 63/118/63 35/116/35
f 24/119/24 63/118/63 67/115/67
f 24/119/24 23/120/23 63/118/63
f 48/67/48 23/121/23 13/68/13
f 48/67/48 68/122/68 23/121/23
f 68/122/68 63/123/63 23/121/23
f 68/122/68 62/124/62 63/123/63
f 33/125/33 9/126/9 4/127/4
f 33/125/33 69/128/69 9/126/9
f 70/129/70 9/126/9 69/128/69
f 70/129/70 8/130/8 9/126/9
f 71/131/71 8/130/8 70/129/70
f 71/131/71 6/132/6 8/130/8
f 72/133/72 6/134/6 71/135/71
f 72/133/72 26/136/26 6/134/6
f 72/133/72 28/73/28 26/136/26
f 72/133/72 51/74/51 28/73/28
