# Blender v2.92.0 OBJ File: ''
# www.blender.org
mtllib armbelt.mtl
o 00(pant)_01_00(pant)_01.001
v -0.237900 0.045379 -0.002900
v -0.220200 0.050079 -0.068800
v -0.173900 0.051779 -0.121300
v -0.114100 0.053079 -0.152100
v -0.055400 0.052179 -0.162400
v -0.063000 -0.000421 0.205000
v -0.121100 0.006779 0.179100
v -0.163600 0.015179 0.153700
v -0.208100 0.026479 0.115900
v -0.231900 0.037879 0.056600
v 0.000000 0.050079 -0.164200
v 0.000000 -0.001821 0.215300
v 0.063000 -0.000421 0.205000
v 0.055400 0.052179 -0.162400
v 0.237900 0.045379 -0.002900
v 0.121100 0.006779 0.179100
v 0.163600 0.015179 0.153700
v 0.208100 0.026479 0.115900
v 0.231900 0.037879 0.056600
v 0.114100 0.053079 -0.152100
v 0.173900 0.051779 -0.121300
v 0.220200 0.050079 -0.068800
v 0.000000 0.004779 -0.157100
v -0.058400 0.004479 -0.156200
v -0.115500 0.005879 -0.146700
v -0.165300 0.004479 -0.123900
v -0.215800 0.002779 -0.073700
v -0.226300 -0.012121 0.057700
v -0.207900 -0.023121 0.118100
v -0.169300 -0.035221 0.156500
v -0.123500 -0.043321 0.186300
v -0.236600 -0.004221 -0.001800
v -0.228600 -0.007421 0.057900
v -0.209900 -0.018121 0.118900
v -0.170300 -0.030621 0.157900
v -0.238000 0.001179 -0.001800
v -0.234300 0.034079 0.057000
v -0.210400 0.022079 0.118300
v -0.165500 0.011879 0.155300
v -0.121900 0.004779 0.181800
v -0.122700 -0.039121 0.188200
v -0.217400 0.007779 -0.073600
v -0.241600 0.041079 -0.003200
v -0.231900 0.037879 0.056600
v -0.208100 0.026479 0.115900
v -0.163600 0.015179 0.153700
v -0.121100 0.006779 0.179100
v -0.167100 0.009379 -0.125500
v -0.224200 0.045679 -0.068700
v -0.237900 0.045379 -0.002900
v -0.115600 0.011679 -0.149400
v -0.173100 0.047979 -0.123800
v -0.220200 0.050079 -0.068800
v -0.058500 0.011079 -0.158500
v -0.115200 0.049579 -0.154900
v -0.173900 0.051779 -0.121300
v 0.000000 0.009479 -0.159400
v -0.055800 0.048979 -0.166300
v -0.114100 0.053079 -0.152100
v 0.000000 0.048179 -0.167200
v -0.055400 0.052179 -0.162400
v 0.000000 0.050079 -0.164200
v -0.063000 -0.000421 0.205000
v -0.065200 -0.002121 0.206600
v -0.063500 -0.044921 0.208300
v -0.062600 -0.049821 0.206400
v 0.000000 -0.001821 0.215300
v 0.000000 -0.004821 0.216800
v 0.000000 -0.049821 0.216000
v -0.031300 -0.051721 0.210000
v 0.063000 -0.000421 0.205000
v 0.065200 -0.002121 0.206600
v 0.055900 -0.002521 0.208100
v 0.063500 -0.044921 0.208300
v 0.056900 -0.045421 0.209100
v 0.056600 -0.050221 0.207100
v 0.121900 0.004779 0.181800
v 0.122700 -0.039121 0.188200
v 0.062600 -0.049821 0.206400
v 0.031300 -0.051721 0.210000
v 0.000000 -0.053721 0.213600
v 0.121100 0.006779 0.179100
v 0.165500 0.011879 0.155300
v 0.170300 -0.030621 0.157900
v 0.123500 -0.043321 0.186300
v 0.163600 0.015179 0.153700
v 0.210400 0.022079 0.118300
v 0.209900 -0.018121 0.118900
v 0.207900 -0.023121 0.118100
v 0.169300 -0.035221 0.156500
v 0.208100 0.026479 0.115900
v 0.234300 0.034079 0.057000
v 0.228600 -0.007421 0.057900
v 0.226300 -0.012121 0.057700
v 0.231900 0.037879 0.056600
v 0.241600 0.041079 -0.003200
v 0.238000 0.001179 -0.001800
v 0.236600 -0.004221 -0.001800
v 0.237900 0.045379 -0.002900
v 0.224200 0.045679 -0.068700
v 0.217400 0.007779 -0.073600
v 0.215800 0.002779 -0.073700
v 0.220200 0.050079 -0.068800
v 0.173100 0.047979 -0.123800
v 0.167100 0.009379 -0.125500
v 0.165300 0.004479 -0.123900
v 0.173900 0.051779 -0.121300
v 0.115200 0.049579 -0.154900
v 0.115600 0.011679 -0.149400
v 0.115500 0.005879 -0.146700
v 0.114100 0.053079 -0.152100
v 0.055800 0.048979 -0.166300
v 0.058500 0.011079 -0.158500
v 0.058400 0.004479 -0.156200
v 0.055400 0.052179 -0.162400
v 0.000000 0.048179 -0.167200
v 0.000000 0.009479 -0.159400
v 0.000000 0.004779 -0.157100
v 0.000000 0.050079 -0.164200
v -0.035600 -0.051521 0.210000
v -0.035600 -0.005221 0.210100
v -0.035600 -0.005521 0.214900
v -0.035600 -0.051821 0.215000
v -0.028400 -0.052221 0.219000
v -0.035600 -0.051521 0.210000
v 0.000500 -0.052221 0.222500
v 0.036700 -0.051521 0.210000
v 0.029500 -0.052221 0.219000
v 0.036700 -0.051821 0.215000
v -0.028400 -0.005121 0.218900
v 0.000500 -0.005121 0.222400
v 0.029500 -0.005021 0.218900
v 0.036700 -0.005421 0.214900
v 0.036700 -0.005221 0.210100
v 0.036700 -0.051521 0.210000
v -0.035600 -0.005221 0.210100
v 0.036700 -0.005221 0.210100
v 0.000000 -0.049821 0.216000
v 0.031300 -0.051721 0.210000
v 0.000000 -0.053721 0.213600
v 0.056600 -0.050221 0.207100
v 0.056900 -0.045421 0.209100
v 0.055900 -0.002521 0.208100
v 0.000000 -0.004821 0.216800
vt 0.247070 0.849487
vt 0.226807 0.872192
vt 0.219116 0.901001
vt 0.273193 0.836060
vt 0.298828 0.831665
vt 0.295410 0.993660
vt 0.270020 0.982040
vt 0.251465 0.970551
vt 0.232056 0.953552
vt 0.221680 0.927246
vt 0.322998 0.830933
vt 0.322998 0.998173
vt 0.350342 0.993660
vt 0.347168 0.831665
vt 0.426758 0.901001
vt 0.375732 0.982040
vt 0.394287 0.970551
vt 0.413818 0.953552
vt 0.424072 0.927246
vt 0.372803 0.836060
vt 0.398926 0.849487
vt 0.418945 0.872192
vt 0.237061 0.041992
vt 0.237061 0.035156
vt 0.197754 0.041992
vt 0.275146 0.035156
vt 0.275146 0.041504
vt 0.314453 0.035156
vt 0.314453 0.041504
vt 0.351807 0.041504
vt 0.197754 0.035156
vt 0.158447 0.041992
vt 0.237061 0.012695
vt 0.275146 0.012695
vt 0.314453 0.012695
vt 0.351807 0.012695
vt 0.351807 0.035156
vt 0.158447 0.035156
vt 0.197754 0.012695
vt 0.237061 0.005859
vt 0.275146 0.005859
vt 0.314453 0.005859
vt 0.351807 0.005859
vt 0.128418 0.041992
vt 0.128418 0.035156
vt 0.158447 0.012695
vt 0.197754 0.005859
vt 0.092651 0.041992
vt 0.092651 0.035156
vt 0.128418 0.012695
vt 0.158447 0.005859
vt 0.059937 0.041992
vt 0.059937 0.035156
vt 0.092651 0.012695
vt 0.128418 0.005859
vt 0.019348 0.041992
vt 0.019348 0.035156
vt 0.059937 0.012695
vt 0.092651 0.005859
vt 0.019348 0.012695
vt 0.059937 0.005859
vt 0.019348 0.005859
vt 0.419434 0.005859
vt 0.419434 0.012695
vt 0.419434 0.035156
vt 0.419434 0.041504
vt 0.500000 0.005859
vt 0.500000 0.012695
vt 0.500000 0.035156
vt 0.457764 0.041504
vt 0.580566 0.005859
vt 0.580566 0.012695
vt 0.568848 0.012695
vt 0.580566 0.035156
vt 0.572266 0.035156
vt 0.573242 0.041504
vt 0.647949 0.012695
vt 0.647949 0.035156
vt 0.580566 0.041504
vt 0.647949 0.005859
vt 0.685547 0.012695
vt 0.685547 0.035156
vt 0.647949 0.041504
vt 0.685547 0.005859
vt 0.725098 0.012695
vt 0.725098 0.035156
vt 0.725098 0.041504
vt 0.685547 0.041504
vt 0.725098 0.005859
vt 0.762695 0.012695
vt 0.762695 0.035156
vt 0.762695 0.041992
vt 0.762695 0.005859
vt 0.802246 0.012695
vt 0.802246 0.035156
vt 0.802246 0.041992
vt 0.802246 0.005859
vt 0.841309 0.012695
vt 0.841309 0.035156
vt 0.841309 0.041992
vt 0.841309 0.005859
vt 0.871582 0.012695
vt 0.871582 0.035156
vt 0.871582 0.041992
vt 0.871582 0.005859
vt 0.907227 0.012695
vt 0.907227 0.035156
vt 0.907227 0.041992
vt 0.907227 0.005859
vt 0.939941 0.012695
vt 0.939941 0.035156
vt 0.939941 0.041992
vt 0.939941 0.005859
vt 0.980469 0.012695
vt 0.980469 0.035156
vt 0.980469 0.041992
vt 0.980469 0.005859
vt 0.500000 0.041504
vt 0.553223 0.886414
vt 0.535645 0.886414
vt 0.535645 0.966278
vt 0.553223 0.966278
vt 0.571777 0.966278
vt 0.562988 0.976837
vt 0.625977 0.966278
vt 0.688965 0.976837
vt 0.680176 0.966278
vt 0.699219 0.966278
vt 0.571777 0.886414
vt 0.625977 0.886414
vt 0.680176 0.886414
vt 0.699219 0.886414
vt 0.716797 0.886414
vt 0.716797 0.966278
vt 0.562988 0.874634
vt 0.688965 0.874634
vt 0.500000 0.041504
vt 0.541992 0.041504
vt 0.500000 0.035156
vt 0.573242 0.041504
vt 0.572266 0.035156
vt 0.568848 0.012695
vt 0.500000 0.012695
vn 0.0129 0.9981 0.0609
vn 0.0631 0.9941 0.0879
vn 0.0869 0.9882 0.1262
vn 0.0256 0.9970 0.0727
vn 0.0525 0.9901 0.1304
vn 0.0303 0.9889 0.1452
vn 0.0514 0.9831 0.1755
vn 0.1181 0.9840 0.1337
vn 0.1516 0.9814 0.1181
vn 0.2140 0.9716 0.1009
vn 0.0000 0.9899 0.1418
vn 0.0000 0.9908 0.1355
vn -0.0303 0.9889 0.1452
vn -0.0525 0.9901 0.1304
vn -0.0869 0.9882 0.1262
vn -0.0514 0.9831 0.1755
vn -0.1181 0.9840 0.1337
vn -0.1516 0.9814 0.1181
vn -0.2140 0.9716 0.1009
vn -0.0256 0.9970 0.0727
vn -0.0129 0.9981 0.0609
vn -0.0631 0.9941 0.0879
vn -0.9736 -0.0517 0.2222
vn -0.9426 -0.2709 0.1951
vn -0.9964 -0.0508 -0.0684
vn -0.8502 -0.1817 0.4941
vn -0.8520 -0.1180 0.5101
vn -0.6365 -0.1194 0.7619
vn -0.6339 -0.1311 0.7622
vn -0.4537 -0.1456 0.8792
vn -0.9812 -0.1738 -0.0835
vn -0.8524 -0.1283 -0.5068
vn -0.9364 0.2219 0.2720
vn -0.7534 0.2928 0.5887
vn -0.5092 0.3422 0.7897
vn -0.3456 0.5073 0.7894
vn -0.4386 -0.1004 0.8930
vn -0.8459 -0.1677 -0.5064
vn -0.9551 0.2919 -0.0507
vn -0.7966 0.5366 0.2783
vn -0.6032 0.6000 0.5255
vn -0.3872 0.5735 0.7219
vn -0.1810 0.8102 0.5575
vn -0.5617 -0.1362 -0.8161
vn -0.5563 -0.2395 -0.7957
vn -0.8618 0.2785 -0.4240
vn -0.7576 0.6527 -0.0046
vn -0.3246 -0.0267 -0.9455
vn -0.2907 -0.2592 -0.9210
vn -0.5914 0.1555 -0.7912
vn -0.6836 0.6058 -0.4069
vn -0.0848 0.0680 -0.9941
vn -0.0931 -0.2580 -0.9616
vn -0.3129 0.2713 -0.9102
vn -0.6323 0.3331 -0.6995
vn 0.0527 -0.0837 -0.9951
vn -0.0228 -0.3232 -0.9461
vn -0.0871 0.3288 -0.9404
vn -0.2471 0.6551 -0.7140
vn -0.0186 -0.1975 -0.9801
vn 0.0138 0.8409 -0.5410
vn -0.0488 0.7762 -0.6286
vn 0.0146 0.8447 -0.5350
vn -0.0488 0.7761 -0.6287
vn -0.1185 0.7582 0.6411
vn -0.2216 0.4267 0.8768
vn -0.2380 -0.1894 0.9526
vn -0.2267 -0.1945 0.9543
vn 0.0076 0.4512 0.8924
vn -0.0445 0.2994 0.9531
vn -0.1311 -0.2810 0.9507
vn -0.1304 -0.2151 0.9678
vn 0.1088 0.7489 0.6537
vn 0.2197 0.4283 0.8765
vn 0.0099 0.9492 0.3146
vn 0.1539 0.0323 0.9876
vn 0.2346 -0.1853 0.9543
vn 0.1325 -0.1944 0.9719
vn 0.1243 -0.1361 0.9829
vn 0.3456 0.5073 0.7894
vn 0.4386 -0.1004 0.8930
vn 0.2231 -0.2002 0.9540
vn 0.1810 0.8102 0.5575
vn 0.5092 0.3422 0.7897
vn 0.6365 -0.1194 0.7619
vn 0.4537 -0.1456 0.8792
vn 0.3873 0.5735 0.7219
vn 0.7534 0.2928 0.5887
vn 0.8502 -0.1817 0.4941
vn 0.8520 -0.1180 0.5101
vn 0.6339 -0.1311 0.7622
vn 0.6032 0.6000 0.5255
vn 0.9364 0.2219 0.2720
vn 0.9426 -0.2709 0.1951
vn 0.9736 -0.0517 0.2222
vn 0.7966 0.5366 0.2783
vn 0.9551 0.2919 -0.0507
vn 0.9812 -0.1738 -0.0835
vn 0.9964 -0.0508 -0.0684
vn 0.7576 0.6527 -0.0046
vn 0.8618 0.2785 -0.4240
vn 0.8459 -0.1677 -0.5064
vn 0.8524 -0.1283 -0.5068
vn 0.6836 0.6058 -0.4069
vn 0.5914 0.1555 -0.7912
vn 0.5563 -0.2395 -0.7957
vn 0.5617 -0.1362 -0.8161
vn 0.6323 0.3331 -0.6995
vn 0.3129 0.2713 -0.9102
vn 0.2907 -0.2592 -0.9210
vn 0.3246 -0.0267 -0.9455
vn 0.2471 0.6551 -0.7140
vn 0.0871 0.3288 -0.9404
vn 0.0931 -0.2580 -0.9616
vn 0.0848 0.0680 -0.9941
vn 0.0488 0.7761 -0.6287
vn -0.0138 0.8409 -0.5410
vn 0.0186 -0.1975 -0.9801
vn 0.0228 -0.3232 -0.9461
vn -0.0527 -0.0837 -0.9951
vn -0.0146 0.8447 -0.5350
vn -0.0442 -0.1628 0.9857
vn -1.0000 0.0000 0.0000
vn -0.4856 0.0019 0.8742
vn -0.4857 0.0019 0.8741
vn -0.0058 -0.9976 -0.0684
vn 0.0058 -0.9966 -0.0821
vn -0.0222 -0.9980 -0.0599
vn 0.0000 -0.9982 -0.0603
vn 0.0058 -0.9976 -0.0684
vn -0.0058 -0.9966 -0.0821
vn 0.0222 -0.9980 -0.0599
vn -0.1202 0.0021 0.9927
vn 0.1198 0.0021 0.9928
vn 0.4856 0.0019 0.8742
vn 0.4857 0.0019 0.8741
vn 1.0000 -0.0000 0.0000
vn -0.0111 0.9999 -0.0023
vn -0.0388 0.9990 0.0211
vn -0.0897 0.9940 0.0621
vn -0.0004 1.0000 -0.0099
vn 0.0319 0.9995 0.0064
vn 0.0049 0.9998 -0.0187
vn 0.0784 0.9961 0.0415
vn 0.1303 -0.5196 0.8444
vn 0.1276 -0.5353 0.8350
vn 0.1402 -0.2725 0.9519
vn 0.1399 -0.3955 0.9077
vn 0.1319 -0.1760 0.9755
vn 0.1337 0.0075 0.9910
vn 0.1545 -0.0176 0.9878
usemtl bayomat_002_ois00_xbxeX.001
s 1
f 3/1/1 2/2/2 1/3/3
f 4/4/4 3/1/1 1/3/3
f 5/5/5 4/4/4 1/3/3
f 6/6/6 5/5/5 1/3/3
f 7/7/7 6/6/6 1/3/3
f 8/8/8 7/7/7 1/3/3
f 9/9/9 8/8/8 1/3/3
f 10/10/10 9/9/9 1/3/3
f 5/5/5 6/6/6 11/11/11
f 6/6/6 12/12/12 11/11/11
f 12/12/12 13/13/13 11/11/11
f 13/13/13 14/14/14 11/11/11
f 14/14/14 13/13/13 15/15/15
f 13/13/13 16/16/16 15/15/15
f 16/16/16 17/17/17 15/15/15
f 17/17/17 18/18/18 15/15/15
f 18/18/18 19/19/19 15/15/15
f 20/20/20 14/14/14 15/15/15
f 21/21/21 20/20/20 15/15/15
f 22/22/22 21/21/21 15/15/15
f 28/23/23 33/24/24 32/25/25
f 34/26/26 33/24/24 28/23/23
f 29/27/27 34/26/26 28/23/23
f 35/28/28 34/26/26 29/27/27
f 30/29/29 35/28/28 29/27/27
f 35/28/28 30/29/29 31/30/30
f 32/25/25 36/31/31 27/32/32
f 33/24/24 36/31/31 32/25/25
f 36/31/31 33/24/24 37/33/33
f 38/34/34 37/33/33 33/24/24
f 34/26/26 38/34/34 33/24/24
f 39/35/35 38/34/34 34/26/26
f 35/28/28 39/35/35 34/26/26
f 39/35/35 35/28/28 40/36/36
f 35/28/28 41/37/37 40/36/36
f 41/37/37 35/28/28 31/30/30
f 36/31/31 42/38/38 27/32/32
f 36/31/31 43/39/39 42/38/38
f 43/39/39 36/31/31 37/33/33
f 43/39/39 37/33/33 44/40/40
f 44/40/40 37/33/33 45/41/41
f 37/33/33 38/34/34 45/41/41
f 45/41/41 38/34/34 46/42/42
f 38/34/34 39/35/35 46/42/42
f 46/42/42 39/35/35 47/43/43
f 39/35/35 40/36/36 47/43/43
f 27/32/32 42/38/38 26/44/44
f 42/38/38 48/45/45 26/44/44
f 48/45/45 42/38/38 49/46/46
f 43/39/39 49/46/46 42/38/38
f 49/46/46 43/39/39 50/47/47
f 50/47/47 43/39/39 44/40/40
f 26/44/44 48/45/45 25/48/48
f 48/45/45 51/49/49 25/48/48
f 48/45/45 52/50/50 51/49/49
f 52/50/50 48/45/45 49/46/46
f 52/50/50 49/46/46 53/51/51
f 53/51/51 49/46/46 50/47/47
f 25/48/48 51/49/49 24/52/52
f 51/49/49 54/53/53 24/52/52
f 54/53/53 51/49/49 55/54/54
f 52/50/50 55/54/54 51/49/49
f 55/54/54 52/50/50 56/55/55
f 56/55/55 52/50/50 53/51/51
f 24/52/52 54/53/53 23/56/56
f 54/53/53 57/57/57 23/56/56
f 54/53/53 58/58/58 57/57/57
f 58/58/58 54/53/53 55/54/54
f 58/58/58 55/54/54 59/59/59
f 59/59/59 55/54/54 56/55/55
f 58/58/58 60/60/60 57/57/57
f 60/60/61 58/58/58 61/61/62
f 61/61/62 58/58/58 59/59/59
f 62/62/63 60/60/61 61/61/64
f 47/43/43 40/36/36 63/63/65
f 40/36/36 64/64/66 63/63/65
f 40/36/36 41/37/37 64/64/66
f 41/37/37 65/65/67 64/64/66
f 65/65/67 41/37/37 66/66/68
f 41/37/37 31/30/30 66/66/68
f 63/63/65 64/64/66 67/67/69
f 64/64/66 68/68/70 67/67/69
f 64/64/66 65/65/67 68/68/70
f 65/65/67 69/69/71 68/68/70
f 69/69/71 65/65/67 70/70/72
f 65/65/67 66/66/68 70/70/72
f 71/71/73 67/67/69 68/68/70
f 72/72/74 71/71/73 68/68/70
f 73/73/75 72/72/74 68/68/70
f 72/72/74 73/73/76 74/74/77
f 73/73/76 75/75/78 74/74/77
f 75/75/78 76/76/79 74/74/77
f 72/72/74 77/77/80 71/71/73
f 78/78/81 77/77/80 72/72/74
f 74/74/77 78/78/81 72/72/74
f 78/78/81 74/74/77 79/79/82
f 76/76/79 79/79/82 74/74/77
f 77/77/80 82/80/83 71/71/73
f 77/77/80 83/81/84 82/80/83
f 84/82/85 83/81/84 77/77/80
f 78/78/81 84/82/85 77/77/80
f 84/82/85 78/78/81 85/83/86
f 85/83/86 78/78/81 79/79/82
f 83/81/84 86/84/87 82/80/83
f 83/81/84 87/85/88 86/84/87
f 87/85/88 83/81/84 88/86/89
f 83/81/84 84/82/85 88/86/89
f 88/86/89 84/82/85 89/87/90
f 84/82/85 90/88/91 89/87/90
f 90/88/91 84/82/85 85/83/86
f 87/85/88 91/89/92 86/84/87
f 87/85/88 92/90/93 91/89/92
f 92/90/93 87/85/88 93/91/94
f 87/85/88 88/86/89 93/91/94
f 93/91/94 88/86/89 94/92/95
f 88/86/89 89/87/90 94/92/95
f 92/90/93 95/93/96 91/89/92
f 92/90/93 96/94/97 95/93/96
f 97/95/98 96/94/97 92/90/93
f 93/91/94 97/95/98 92/90/93
f 97/95/98 93/91/94 98/96/99
f 93/91/94 94/92/95 98/96/99
f 96/94/97 99/97/100 95/93/96
f 96/94/97 100/98/101 99/97/100
f 100/98/101 96/94/97 101/99/102
f 96/94/97 97/95/98 101/99/102
f 101/99/102 97/95/98 102/100/103
f 97/95/98 98/96/99 102/100/103
f 100/98/101 103/101/104 99/97/100
f 100/98/101 104/102/105 103/101/104
f 105/103/106 104/102/105 100/98/101
f 101/99/102 105/103/106 100/98/101
f 105/103/106 101/99/102 106/104/107
f 101/99/102 102/100/103 106/104/107
f 104/102/105 107/105/108 103/101/104
f 104/102/105 108/106/109 107/105/108
f 108/106/109 104/102/105 109/107/110
f 104/102/105 105/103/106 109/107/110
f 109/107/110 105/103/106 110/108/111
f 105/103/106 106/104/107 110/108/111
f 108/106/109 111/109/112 107/105/108
f 108/106/109 112/110/113 111/109/112
f 113/111/114 112/110/113 108/106/109
f 109/107/110 113/111/114 108/106/109
f 113/111/114 109/107/110 114/112/115
f 109/107/110 110/108/111 114/112/115
f 112/110/113 115/113/116 111/109/112
f 112/110/113 116/114/117 115/113/116
f 116/114/118 112/110/113 117/115/119
f 112/110/113 113/111/114 117/115/119
f 117/115/119 113/111/114 118/116/120
f 113/111/114 114/112/115 118/116/120
f 116/114/117 119/117/121 115/113/116
f 81/118/122 69/69/71 70/70/72
usemtl bayomat_001_ois00_xbceX.001
f 122/119/123 121/120/123 120/121/123
f 123/122/123 122/119/123 120/121/123
f 124/123/124 122/119/125 123/122/124
f 125/124/126 124/123/127 123/122/128
f 125/124/126 126/125/129 124/123/127
f 126/125/129 125/124/126 127/126/130
f 127/126/130 128/127/131 126/125/129
f 128/127/131 127/126/130 129/128/132
f 122/119/125 124/123/124 130/129/125
f 130/129/133 124/123/133 126/125/133
f 130/129/133 126/125/133 131/130/133
f 126/125/134 132/131/134 131/130/134
f 132/131/134 126/125/134 128/127/134
f 128/127/135 133/132/136 132/131/136
f 133/132/136 128/127/135 129/128/135
f 134/133/137 133/132/137 129/128/137
f 135/134/137 134/133/137 129/128/137
f 130/129/138 136/135/139 122/119/140
f 136/135/139 130/129/138 131/130/141
f 131/130/141 137/136/142 136/135/139
f 137/136/142 131/130/141 132/131/143
f 137/136/142 132/131/143 133/132/144
f 140/137/145 139/138/146 138/139/147
f 139/138/146 141/140/148 138/139/147
f 141/140/148 142/141/149 138/139/147
f 142/141/149 143/142/150 138/139/147
f 143/142/150 144/143/151 138/139/147
l 76 80
l 80 81
