# Blender v3.0.1 OBJ File: ''
# www.blender.org
mtllib aviator3.mtl
o US_eyewear_aviator.mo_US_eyewear_aviator.md
v -0.849813 5.046016 -24.073784
v -0.740391 4.537455 -24.274033
v -0.693994 4.832275 -24.321915
v -0.999181 4.894278 -23.861477
v -1.128990 3.944351 -24.085258
v -0.988197 5.052392 -24.166176
v -1.129634 4.920700 -23.961529
v -1.381551 4.245333 -23.626932
v -1.496967 4.306094 -23.730438
v -1.529736 3.989773 -23.700634
v -1.623064 4.075732 -23.808464
v -1.377754 3.809279 -23.976059
v 1.265870 3.925096 -24.132385
v 0.803878 4.488190 -24.237534
v 0.937439 4.507468 -24.335091
v 1.144564 3.871820 -24.031521
v 1.482386 3.801016 -24.014084
v 1.378785 3.721341 -23.910908
v 1.632389 3.971878 -23.731522
v 1.528788 3.892201 -23.628345
v 1.517679 4.209922 -23.659187
v 1.201563 4.846331 -23.906429
v 1.078617 4.986457 -24.117327
v 0.921382 4.782702 -24.372856
v 0.935902 4.989049 -24.031578
v 0.778670 4.785295 -24.287109
v 1.393871 4.156793 -23.561335
v 1.065114 4.828423 -23.812687
v -0.867697 4.565053 -24.377754
v -0.832377 4.838650 -24.414307
v -1.241761 4.005094 -24.191654
v -1.471082 3.895236 -24.083889
vt 0.450000 0.959400
vt 0.050800 0.677700
vt 0.080600 0.874500
vt 0.665000 0.819700
vt 0.284900 0.210900
vt 0.493700 0.938000
vt 0.704100 0.813000
vt 0.908200 0.317400
vt 0.944300 0.335400
vt 0.883800 0.128900
vt 0.908700 0.168000
vt 0.509300 0.065400
vt 0.317100 0.230000
vt 0.050800 0.677700
vt 0.084800 0.672600
vt 0.284900 0.210900
vt 0.533700 0.105000
vt 0.509300 0.065400
vt 0.908700 0.168000
vt 0.883800 0.128900
vt 0.944300 0.335400
vt 0.704100 0.813000
vt 0.493700 0.938000
vt 0.124200 0.853100
vt 0.450000 0.959400
vt 0.080600 0.874500
vt 0.908200 0.317400
vt 0.665000 0.819700
vt 0.084800 0.672600
vt 0.124200 0.853100
vt 0.317100 0.230000
vt 0.533700 0.105000
vn 0.5486 0.7732 0.3181
vn 0.9135 -0.3929 -0.1060
vn 0.9245 0.2660 -0.2731
vn 0.2866 0.4243 0.8590
vn 0.6756 -0.7350 -0.0580
vn -0.4505 0.8191 -0.3551
vn -0.7388 0.6674 0.0932
vn 0.1082 -0.0107 0.9941
vn -0.8422 0.4866 0.2321
vn -0.3165 -0.5692 0.7589
vn -0.9980 0.0545 -0.0326
vn 0.0464 -0.9940 0.0988
vn 0.2336 -0.3189 -0.9186
vn -0.9306 -0.3340 -0.1496
vn 0.1104 -0.1939 -0.9748
vn -0.7176 -0.6905 -0.0910
vn 0.6409 -0.4112 -0.6481
vn -0.1142 -0.9889 0.0950
vn 0.9999 -0.0092 0.0146
vn 0.2434 -0.5870 0.7721
vn 0.8596 0.4323 0.2724
vn 0.7746 0.6192 0.1290
vn 0.5180 0.7882 -0.3322
vn 0.1493 0.3092 -0.9392
vn -0.5127 0.8071 0.2930
vn -0.8917 0.3240 -0.3161
vn -0.1555 -0.0023 0.9878
vn -0.2992 0.4430 0.8451
vn -0.0764 -0.1879 -0.9792
vn -0.0848 0.3167 -0.9447
vn -0.2098 -0.3047 -0.9290
vn -0.6345 -0.3705 -0.6783
usemtl M_Transl_INST.001
s 1
f 1/1/1 2/2/2 3/3/3
f 4/4/4 5/5/5 2/2/2
f 2/2/2 1/1/1 4/4/4
f 6/6/6 4/4/4 1/1/1
f 4/4/4 6/6/6 7/7/7
f 7/7/7 8/8/8 4/4/4
f 8/8/8 7/7/7 9/9/9
f 9/9/9 10/10/10 8/8/8
f 10/10/10 9/9/9 11/11/11
f 5/5/5 4/4/4 8/8/8
f 8/8/8 12/12/12 5/5/5
f 12/12/12 8/8/8 10/10/10
f 13/13/13 14/14/14 15/15/15
f 14/14/14 13/13/13 16/16/16
f 17/17/17 16/16/16 13/13/13
f 16/16/16 17/17/17 18/18/18
f 19/19/19 18/18/18 17/17/17
f 18/18/18 19/19/19 20/20/20
f 17/17/17 21/21/21 19/19/19
f 21/21/21 17/17/17 13/13/13
f 13/13/13 22/22/22 21/21/21
f 22/22/22 13/13/13 15/15/15
f 15/15/15 23/23/23 22/22/22
f 23/23/23 15/15/15 24/24/24
f 24/24/24 25/25/25 23/23/23
f 25/25/25 24/24/24 26/26/26
f 15/15/15 26/26/26 24/24/24
f 26/26/26 15/15/15 14/14/14
f 22/22/22 27/27/27 21/21/21
f 21/21/21 20/20/20 19/19/19
f 20/20/20 21/21/21 27/27/27
f 27/27/27 18/18/18 20/20/20
f 18/18/18 27/27/27 16/16/16
f 28/28/28 16/16/16 27/27/27
f 27/27/27 22/22/22 28/28/28
f 23/23/23 28/28/28 22/22/22
f 28/28/28 23/23/23 25/25/25
f 25/25/25 14/14/14 28/28/28
f 14/14/14 25/25/25 26/26/26
f 16/16/16 28/28/28 14/14/14
f 3/3/3 29/29/29 30/30/30
f 29/29/29 3/3/3 2/2/2
f 2/2/2 31/31/31 29/29/29
f 31/31/31 2/2/2 5/5/5
f 5/5/5 32/32/32 31/31/31
f 32/32/32 5/5/5 12/12/12
f 11/11/11 12/12/12 10/10/10
f 12/12/12 11/11/11 32/32/32
f 9/9/9 32/32/32 11/11/11
f 32/32/32 9/9/9 31/31/31
f 7/7/7 31/31/31 9/9/9
f 31/31/31 7/7/7 29/29/29
f 6/6/6 29/29/29 7/7/7
f 29/29/29 6/6/6 30/30/30
f 1/1/1 30/30/30 6/6/6
f 30/30/30 1/1/1 3/3/3
