# Blender v3.0.1 OBJ File: ''
# www.blender.org
mtllib gaslens.mtl
o german_archetype01.001
v -2.580300 13.166763 16.552729
v -4.528800 14.143356 15.136727
v -4.690600 10.725357 15.368728
v -6.573500 13.166763 13.855027
v -7.513400 10.725357 13.464428
v -6.799300 8.381653 14.196827
v -4.852300 7.307358 15.612826
v -2.807600 8.381653 16.882326
v -1.866200 10.725357 17.273027
v 6.671100 12.678467 14.025928
v 4.675300 13.752762 15.368728
v 4.721100 10.334763 15.441928
v 2.708400 12.776154 16.760328
v 2.774000 7.893356 16.857927
v 4.766800 6.916763 15.515126
v 7.519500 10.334763 13.513227
v 1.921100 10.334763 17.382826
v 6.732200 7.893356 14.123527
vt 0.601100 0.844400
vt 0.551800 0.844400
vt 0.576700 0.784400
vt 0.516600 0.809200
vt 0.516600 0.759600
vt 0.551800 0.724600
vt 0.601100 0.724600
vt 0.636200 0.759600
vt 0.636200 0.809200
vt 0.426500 0.724600
vt 0.476300 0.724600
vt 0.451400 0.784400
vt 0.511200 0.759600
vt 0.476300 0.844400
vt 0.426800 0.844400
vt 0.391600 0.759600
vt 0.511200 0.809200
vt 0.391600 0.809200
vn -0.5565 0.0845 0.8265
vn -0.5566 0.0844 0.8265
vn -0.5566 0.0845 0.8265
vn -0.5565 0.0846 0.8265
vn -0.5565 0.0847 0.8266
vn -0.5565 0.0844 0.8265
vn 0.5679 0.0252 0.8227
vn 0.5682 0.0252 0.8225
vn 0.5682 0.0251 0.8225
vn 0.5682 0.0250 0.8225
vn 0.5686 0.0249 0.8222
vn 0.5682 0.0253 0.8225
usemtl Default_OBJ
s 1
f 1/1/1 2/2/2 3/3/3
f 2/2/2 4/4/1 3/3/3
f 4/4/1 5/5/3 3/3/3
f 5/5/3 6/6/4 3/3/3
f 6/6/4 7/7/5 3/3/3
f 7/7/5 8/8/1 3/3/3
f 9/9/6 1/1/1 3/3/3
f 8/8/1 9/9/6 3/3/3
f 10/10/7 11/11/8 12/12/9
f 11/11/8 13/13/8 12/12/9
f 14/14/10 15/15/8 12/12/9
f 16/16/8 10/10/7 12/12/9
f 13/13/8 17/17/11 12/12/9
f 17/17/11 14/14/10 12/12/9
f 18/18/12 16/16/8 12/12/9
f 15/15/8 18/18/12 12/12/9
