# Blender v2.92.0 OBJ File: ''
# www.blender.org
mtllib lemon2.mtl
o AUS_Headgear_Lemon2.mo_AUS_Headgear_Lemon2.md.001
v 0.000000 8.225593 4.719461
v 0.916500 6.099273 5.081942
v 0.909600 8.205787 4.592648
v 0.000000 6.119384 5.213282
v -0.916500 6.099273 5.081942
v -0.909600 8.205787 4.592648
vt 0.518100 0.085400
vt 0.331300 0.003900
vt 0.518100 0.004400
vt 0.331300 0.085400
vt 0.331300 0.167000
vt 0.518100 0.166500
vn -0.0000 0.2271 0.9739
vn 0.1421 0.2256 0.9638
vn 0.1394 0.2245 0.9645
vn -0.0000 0.2283 0.9736
vn -0.1421 0.2256 0.9638
vn -0.1394 0.2245 0.9645
usemtl M_AUS_Headgear_Lemon_INST.001
s 1
f 1/1/1 2/2/2 3/3/3
f 2/2/2 1/1/1 4/4/4
f 1/1/1 5/5/5 4/4/4
f 5/5/5 1/1/1 6/6/6
