# Blender v2.92.0 OBJ File: ''
# www.blender.org
mtllib m1helmetpeace.mtl
o US_Headgear_Peace.mo_US_Headgear_Peace.md.001
v 0.043200 8.397246 4.248969
v 1.784300 7.478347 4.807668
v 1.641200 8.205047 3.919268
v 0.066000 7.700240 5.219469
v 1.942200 5.993941 5.871268
v 0.111100 6.159644 6.399768
v -1.964800 6.018340 5.908868
v -1.749300 7.485045 4.813368
v -1.641200 8.205047 3.919369
v 1.894700 0.984345 -5.057033
v 3.363000 3.086846 -4.411733
v 3.405700 1.077943 -4.075133
v -1.833200 0.967149 -5.052333
v -3.368100 3.087144 -4.413932
v -1.840100 2.950944 -5.408133
v -0.176200 2.944848 -5.705132
v -0.251300 0.962342 -5.332133
v 1.828400 2.952546 -5.386433
v 3.079600 5.094247 -4.535032
v 1.791900 4.920144 -5.364532
v -0.230100 4.890145 -5.720032
v -1.761600 4.923547 -5.383632
v -3.059200 5.099443 -4.554232
v -3.388300 0.951646 -4.151833
v 3.316600 5.307044 5.019368
v 3.854500 4.789947 4.474668
v 3.564100 4.900542 4.866368
v 4.017700 5.040145 4.073768
v 3.257000 5.771544 4.844068
v 3.205100 5.437842 5.139768
v 3.167600 5.730346 5.029368
v 3.309800 5.140944 5.147368
v 3.465700 4.884940 5.050968
v 3.649000 4.708640 4.865368
v 3.831900 4.639045 4.618668
v 3.986500 4.686646 4.348568
v 4.089300 4.844245 4.096068
v 4.124600 5.087844 3.899668
v 4.087000 5.380240 3.789268
v 3.958100 5.504547 3.898468
v 3.420200 6.021743 4.443168
v 3.710600 5.911139 4.051468
v 3.982400 5.677146 3.781668
v 3.826500 5.933144 3.878068
v 3.643200 6.109444 4.063668
v 3.460300 6.179047 4.310368
v 3.305700 6.131446 4.580468
v 3.202900 5.973845 4.832968
v 4.569300 4.985541 2.198268
v 4.173800 5.750144 3.147268
v 4.582800 5.308945 1.584968
v 4.399900 5.168343 2.845368
v 4.432500 5.949142 1.364868
v 4.409900 6.182648 1.192768
v 4.538200 5.766144 1.164868
v 4.632900 5.363045 1.303468
v 4.679600 5.034545 1.587568
v 4.671100 4.830841 1.973768
v 4.608800 4.782944 2.403368
v 4.502100 4.898040 2.810868
v 4.367300 5.158646 3.134368
v 4.224900 5.525146 3.324468
v 4.096600 5.941643 3.352368
v 4.023500 6.390343 2.927168
v 4.036900 6.713745 2.313868
v 4.206300 6.531044 1.666768
v 4.001900 6.344741 3.213768
v 3.955200 6.673241 2.929668
v 3.963700 6.876845 2.543468
v 4.026000 6.924842 2.113868
v 4.132700 6.809745 1.706368
v 4.267500 6.549141 1.382868
v 3.789500 5.461944 4.555968
v 3.948400 5.298545 4.381768
v 3.922200 5.502342 4.304868
v 4.128400 5.083847 4.147868
v 3.371900 5.811141 4.913868
v 3.362900 6.168647 4.623268
v 3.258200 6.008040 4.880568
v 3.534200 6.059943 4.515168
v 3.614600 5.619445 4.719868
v 3.686200 5.729239 4.543868
v 3.813600 5.680739 4.372068
v 4.069100 5.545647 3.973468
v 4.197300 5.105247 3.929568
v 3.823000 5.950043 4.125668
v 3.640700 5.415641 4.796768
v 3.520500 6.217147 4.348068
v 3.706800 6.146141 4.096668
v 3.893600 5.966643 3.907568
v 4.052400 5.705741 3.809368
v 4.159100 5.403244 3.817068
v 3.869000 5.978644 3.859468
v 3.673700 6.166344 4.057168
v 4.035000 5.705939 3.756868
v 4.146500 5.389748 3.764968
v 4.186400 5.078247 3.882468
v 4.148800 4.818848 4.091668
v 3.314200 6.189841 4.607668
v 3.478900 6.240547 4.319868
v 3.431200 5.349242 5.088168
v 3.222200 5.759940 5.080668
v 3.204800 6.021941 4.876568
v 3.484600 4.862143 5.108768
v 3.318600 5.134841 5.211368
v 3.207200 5.451041 5.203268
v 3.167200 5.762542 5.085668
v 3.260500 5.461844 5.193068
v 3.367100 5.159446 5.200868
v 3.525900 4.898543 5.102668
v 3.712700 4.718940 4.913568
v 3.679900 4.674445 4.910968
v 3.899100 4.647941 4.662168
v 3.874700 4.600242 4.648268
v 4.056600 4.696442 4.386968
v 3.677300 4.944945 4.936068
v 3.966100 4.834945 4.546568
v 3.749300 5.237243 4.729568
v 3.876800 5.188743 4.557768
v 4.039400 4.650948 4.360568
v 4.161300 4.857039 4.129668
v 4.415100 6.156441 2.592368
v 4.222100 6.763443 2.346268
v 4.208700 6.441741 2.956168
v 4.481100 5.875542 2.688968
v 4.550900 5.923041 2.300168
v 4.421000 6.298347 2.323268
v 4.495400 6.218146 2.039268
v 4.615400 6.002945 1.402468
v 4.390600 6.581642 1.702768
v 4.594600 5.962844 1.906768
v 4.765000 5.366341 1.621368
v 4.660600 5.681945 2.003368
v 4.781500 4.842247 1.986868
v 4.790100 5.049744 1.593368
v 4.742600 5.384445 1.303868
v 4.646100 5.795242 1.162668
v 4.515400 6.219643 1.191068
v 4.370300 6.592941 1.384768
v 4.232900 6.858542 1.714368
v 4.124200 6.975844 2.129568
v 4.060700 6.926940 2.567268
v 4.052100 6.719443 2.960868
v 4.466000 6.218842 1.132268
v 4.314300 6.609146 1.334768
v 4.170700 6.886742 1.679268
v 4.057100 7.009346 2.113368
v 3.990700 6.958243 2.570868
v 3.981700 6.741341 2.982268
v 4.099600 6.384743 3.250268
v 4.602600 5.775246 1.102568
v 4.677800 4.728043 2.421668
v 4.744100 4.779143 1.964168
v 4.753200 4.996039 1.552768
v 4.703500 5.345840 1.250268
v 4.564100 4.850646 2.855768
v 4.196100 5.973946 3.391568
v 4.031400 6.391541 3.284768
v 4.132200 5.962142 3.432468
v 4.326800 5.549644 3.363168
v 4.268900 5.518547 3.402768
v 4.471900 5.176247 3.169368
v 4.420500 5.128242 3.200268
v 4.609300 4.910645 2.839768
v 4.718000 4.793441 2.424568
v 4.583100 5.226439 2.874868
v 4.358200 5.805144 3.175068
v 4.751600 5.044745 2.231268
v 4.654700 5.539948 2.272468
v 4.580300 5.620148 2.556468
vt 0.946800 0.190900
vt 0.985800 0.166000
vt 0.984900 0.191400
vt 0.946300 0.164600
vt 0.989300 0.124500
vt 0.946800 0.121600
vt 0.898900 0.127000
vt 0.904800 0.168000
vt 0.907200 0.194300
vt 0.616700 0.014600
vt 0.587400 0.049800
vt 0.583500 0.015100
vt 0.681600 0.015600
vt 0.709500 0.052200
vt 0.679700 0.049300
vt 0.651900 0.048800
vt 0.654300 0.015100
vt 0.618700 0.047900
vt 0.590300 0.083000
vt 0.618200 0.081100
vt 0.652300 0.081500
vt 0.677700 0.082500
vt 0.706100 0.086400
vt 0.712900 0.016100
vt 0.371600 0.037600
vt 0.339600 0.016100
vt 0.359900 0.020500
vt 0.322000 0.027800
vt 0.367700 0.058100
vt 0.378700 0.043000
vt 0.376000 0.056200
vt 0.376000 0.030300
vt 0.368900 0.019000
vt 0.357700 0.011700
vt 0.344700 0.009300
vt 0.331800 0.011700
vt 0.320800 0.019000
vt 0.313500 0.030300
vt 0.310800 0.043000
vt 0.317900 0.048300
vt 0.350100 0.069800
vt 0.329600 0.065900
vt 0.313500 0.056200
vt 0.320800 0.066900
vt 0.331800 0.074200
vt 0.344700 0.077100
vt 0.357700 0.074200
vt 0.368900 0.066900
vt 0.346200 0.191900
vt 0.377200 0.212400
vt 0.329300 0.203100
vt 0.366000 0.195800
vt 0.325200 0.222700
vt 0.321000 0.230000
vt 0.318600 0.217800
vt 0.321000 0.205100
vt 0.328100 0.194300
vt 0.338900 0.187500
vt 0.351300 0.185100
vt 0.363800 0.187500
vt 0.374300 0.194300
vt 0.381600 0.205100
vt 0.384000 0.217800
vt 0.373300 0.232400
vt 0.356400 0.243700
vt 0.336700 0.239700
vt 0.381600 0.230000
vt 0.374300 0.240700
vt 0.363800 0.248000
vt 0.351300 0.250500
vt 0.338900 0.248000
vt 0.328100 0.240700
vt 0.344500 0.043000
vt 0.353300 0.036600
vt 0.355200 0.044900
vt 0.364700 0.028800
vt 0.324200 0.057600
vt 0.333300 0.072800
vt 0.323000 0.065900
vt 0.340300 0.067400
vt 0.335700 0.049300
vt 0.342800 0.053700
vt 0.350800 0.051800
vt 0.368900 0.047400
vt 0.373300 0.030300
vt 0.358900 0.063500
vt 0.333700 0.041000
vt 0.345500 0.074700
vt 0.357200 0.071800
vt 0.367200 0.064900
vt 0.373800 0.054200
vt 0.376000 0.042500
vt 0.368700 0.065900
vt 0.358200 0.073200
vt 0.375700 0.055200
vt 0.377700 0.042000
vt 0.375000 0.029300
vt 0.367400 0.019000
vt 0.377700 0.055700
vt 0.379900 0.042000
vt 0.377000 0.028300
vt 0.368900 0.017100
vt 0.320100 0.068800
vt 0.332500 0.074200
vt 0.331800 0.076200
vt 0.345500 0.076700
vt 0.345500 0.078600
vt 0.358900 0.075700
vt 0.370400 0.067400
vt 0.320100 0.039100
vt 0.315700 0.056200
vt 0.321500 0.067400
vt 0.330100 0.010700
vt 0.320300 0.020000
vt 0.318600 0.018600
vt 0.313500 0.031200
vt 0.311300 0.030300
vt 0.311300 0.043900
vt 0.309100 0.043900
vt 0.314000 0.056600
vt 0.312000 0.057600
vt 0.313000 0.043900
vt 0.315200 0.031700
vt 0.321800 0.021500
vt 0.331800 0.014200
vt 0.330800 0.012700
vt 0.343500 0.011700
vt 0.343500 0.009800
vt 0.355700 0.013700
vt 0.330100 0.022900
vt 0.348600 0.018600
vt 0.338100 0.034200
vt 0.346200 0.032200
vt 0.356400 0.011700
vt 0.366000 0.020000
vt 0.357200 0.009800
vt 0.343500 0.007300
vt 0.342300 0.223600
vt 0.346900 0.241200
vt 0.331500 0.231400
vt 0.340600 0.215800
vt 0.351100 0.217800
vt 0.349100 0.228000
vt 0.357200 0.226100
vt 0.374800 0.221700
vt 0.364700 0.237300
vt 0.361300 0.219200
vt 0.370400 0.203600
vt 0.359600 0.211400
vt 0.361800 0.189500
vt 0.371800 0.195300
vt 0.378700 0.205100
vt 0.381300 0.216800
vt 0.379400 0.228500
vt 0.373000 0.238300
vt 0.363300 0.245100
vt 0.351800 0.248000
vt 0.340100 0.246100
vt 0.330100 0.239700
vt 0.381100 0.229000
vt 0.374300 0.239700
vt 0.364000 0.247100
vt 0.351800 0.249500
vt 0.339600 0.247600
vt 0.328900 0.241200
vt 0.323200 0.230000
vt 0.327400 0.242700
vt 0.338900 0.249500
vt 0.352100 0.252000
vt 0.365000 0.249000
vt 0.376000 0.241200
vt 0.383100 0.230000
vt 0.383100 0.216800
vt 0.350100 0.185500
vt 0.362500 0.187500
vt 0.373000 0.194300
vt 0.380400 0.204600
vt 0.385300 0.216800
vt 0.382300 0.203600
vt 0.374500 0.192900
vt 0.363300 0.185500
vt 0.350100 0.183100
vt 0.337900 0.188500
vt 0.320600 0.218300
vt 0.321800 0.231000
vt 0.318800 0.218800
vt 0.322500 0.206500
vt 0.320800 0.206100
vt 0.328900 0.196800
vt 0.327600 0.195300
vt 0.338600 0.189900
vt 0.350100 0.187000
vt 0.336900 0.186500
vt 0.326200 0.193800
vt 0.319100 0.205600
vt 0.316700 0.218800
vt 0.319600 0.231400
vt 0.337200 0.198200
vt 0.327400 0.213900
vt 0.355000 0.193800
vt 0.352800 0.207000
vt 0.345000 0.209000
vn 0.0047 0.8048 0.5935
vn 0.2450 0.6848 0.6863
vn 0.2161 0.7725 0.5971
vn 0.0127 0.7138 0.7003
vn 0.2667 0.5856 0.7655
vn 0.0281 0.6084 0.7931
vn -0.2325 0.5958 0.7687
vn -0.2287 0.6951 0.6815
vn -0.2055 0.7742 0.5987
vn 0.3575 -0.1514 -0.9216
vn 0.5402 -0.0530 -0.8398
vn 0.5460 -0.1271 -0.8281
vn -0.3596 -0.1507 -0.9209
vn -0.5359 -0.0535 -0.8426
vn -0.3705 -0.0767 -0.9257
vn -0.0095 -0.0920 -0.9957
vn -0.0271 -0.1838 -0.9826
vn 0.3531 -0.0659 -0.9333
vn 0.5372 0.0214 -0.8432
vn 0.3692 0.0172 -0.9292
vn -0.0198 0.0056 -0.9998
vn -0.3841 0.0267 -0.9229
vn -0.5392 0.0285 -0.8417
vn -0.4978 -0.1010 -0.8614
vn -0.8243 -0.3029 -0.4784
vn -0.7912 -0.3347 -0.5118
vn -0.8091 -0.3278 -0.4877
vn -0.7811 -0.3194 -0.5365
vn -0.8279 -0.2744 -0.4891
vn -0.9505 -0.2610 -0.1686
vn -0.9671 -0.1310 -0.2181
vn -0.9013 -0.4003 -0.1657
vn -0.8321 -0.5138 -0.2089
vn -0.7460 -0.5968 -0.2954
vn -0.6649 -0.6275 -0.4051
vn -0.5924 -0.6053 -0.5317
vn -0.5466 -0.5354 -0.6439
vn -0.5303 -0.4212 -0.7358
vn -0.5462 -0.2910 -0.7854
vn -0.7849 -0.2907 -0.5472
vn -0.8179 -0.2590 -0.5137
vn -0.8001 -0.2657 -0.5378
vn -0.5955 -0.1517 -0.7889
vn -0.6651 -0.0382 -0.7458
vn -0.7511 0.0444 -0.6587
vn -0.8324 0.0749 -0.5491
vn -0.9048 0.0527 -0.4227
vn -0.9505 -0.0169 -0.3102
vn -0.9326 -0.3181 -0.1708
vn -0.9501 -0.2841 -0.1286
vn -0.9320 -0.3037 -0.1980
vn -0.9401 -0.3100 -0.1420
vn -0.9387 -0.2753 -0.2076
vn -0.8488 -0.1501 -0.5069
vn -0.8055 -0.2910 -0.5162
vn -0.7750 -0.4201 -0.4721
vn -0.7593 -0.5312 -0.3759
vn -0.7618 -0.5966 -0.2523
vn -0.7831 -0.6127 -0.1069
vn -0.8173 -0.5757 0.0235
vn -0.8629 -0.4876 0.1330
vn -0.9085 -0.3703 0.1939
vn -0.9519 -0.2294 0.2032
vn -0.9568 -0.2558 -0.1385
vn -0.9562 -0.2414 -0.1656
vn -0.9487 -0.2495 -0.1944
vn -0.9822 -0.1002 0.1592
vn -0.9979 0.0110 0.0631
vn -0.9952 0.0761 -0.0608
vn -0.9741 0.0926 -0.2061
vn -0.9400 0.0553 -0.3366
vn -0.8944 -0.0327 -0.4461
vn 0.8052 0.2970 0.5132
vn 0.8491 0.2516 0.4645
vn 0.8418 0.3082 0.4432
vn 0.9048 0.1800 0.3859
vn 0.6737 0.4022 0.6200
vn 0.4450 0.7324 0.5153
vn 0.3805 0.6339 0.6734
vn 0.7233 0.4782 0.4982
vn 0.7563 0.3406 0.5585
vn 0.7762 0.3712 0.5095
vn 0.8116 0.3577 0.4619
vn 0.8866 0.3211 0.3328
vn 0.9981 0.0400 0.0479
vn 0.8114 0.4447 0.3792
vn 0.7636 0.2839 0.5799
vn 0.5558 0.7667 0.3215
vn 0.6704 0.7229 0.1671
vn 0.8018 0.5966 0.0339
vn 0.8994 0.4362 -0.0263
vn 0.9745 0.2233 -0.0211
vn 0.1473 0.6188 -0.7716
vn -0.0790 0.8363 -0.5426
vn 0.3399 0.3031 -0.8903
vn 0.4691 -0.0631 -0.8809
vn 0.5145 -0.4244 -0.7451
vn 0.4713 -0.7246 -0.5028
vn -0.4956 0.8634 0.0951
vn -0.3051 0.9219 -0.2387
vn 0.6918 0.2612 0.6732
vn 0.3544 0.4591 0.8146
vn -0.6221 0.6690 0.4067
vn -0.2982 -0.6744 0.6755
vn -0.4906 -0.3587 0.7942
vn -0.6188 0.0080 0.7855
vn -0.6662 0.3682 0.6486
vn 0.3790 0.2760 0.8833
vn 0.4536 0.0629 0.8890
vn 0.5515 -0.0972 0.8285
vn 0.6826 -0.2243 0.6955
vn -0.0719 -0.8921 0.4462
vn 0.7973 -0.2677 0.5409
vn 0.1535 -0.9779 0.1420
vn 0.9084 -0.2332 0.3472
vn 0.7669 0.1376 0.6268
vn 0.8552 0.1040 0.5078
vn 0.7936 0.2346 0.5613
vn 0.8291 0.2211 0.5135
vn 0.3447 -0.9190 -0.1912
vn 0.9727 -0.1348 0.1888
vn 0.9176 0.3266 0.2268
vn 0.8680 0.4636 0.1777
vn 0.8651 0.3927 0.3120
vn 0.9308 0.2702 0.2462
vn 0.9451 0.2799 0.1684
vn 0.9187 0.3550 0.1729
vn 0.9336 0.3389 0.1161
vn 0.9547 0.2961 -0.0301
vn 0.9051 0.4236 0.0360
vn 0.9535 0.2878 0.0894
vn 0.9876 0.1559 0.0180
vn 0.9667 0.2315 0.1088
vn 0.9660 -0.2586 -0.0037
vn 0.9700 -0.1661 -0.1776
vn 0.9457 0.0037 -0.3249
vn 0.9031 0.1857 -0.3873
vn 0.8366 0.4012 -0.3729
vn 0.7723 0.5666 -0.2872
vn 0.7025 0.7015 -0.1199
vn 0.6543 0.7535 0.0641
vn 0.6221 0.7287 0.2864
vn 0.6183 0.6367 0.4608
vn -0.0062 0.2662 -0.9639
vn -0.1329 0.5922 -0.7948
vn -0.2530 0.8239 -0.5072
vn -0.3477 0.9264 -0.1444
vn -0.4033 0.8837 0.2375
vn -0.4106 0.7026 0.5812
vn 0.6426 0.4666 0.6077
vn 0.1078 -0.1043 -0.9887
vn 0.1709 -0.9788 0.1130
vn 0.2259 -0.9362 -0.2692
vn 0.2339 -0.7550 -0.6126
vn 0.1922 -0.4629 -0.8653
vn 0.0755 -0.8765 0.4755
vn 0.6852 0.2846 0.6704
vn -0.3690 0.4105 0.8339
vn -0.2854 0.0518 0.9570
vn 0.7516 0.0692 0.6560
vn -0.1709 -0.3188 0.9323
vn 0.8159 -0.0962 0.5701
vn -0.0443 -0.6446 0.7632
vn 0.8856 -0.2312 0.4028
vn 0.9339 -0.2827 0.2188
vn 0.9475 0.1251 0.2941
vn 0.8981 0.2526 0.3601
vn 0.9847 0.0851 0.1524
vn 0.9655 0.2031 0.1628
vn 0.9506 0.2192 0.2197
usemtl M_US_Headgear_INST.005
s 1
f 1/1/1 2/2/2 3/3/3
f 2/2/2 1/1/1 4/4/4
f 4/4/4 5/5/5 2/2/2
f 5/5/5 4/4/4 6/6/6
f 4/4/4 7/7/7 6/6/6
f 7/7/7 4/4/4 8/8/8
f 1/1/1 8/8/8 4/4/4
f 8/8/8 1/1/1 9/9/9
f 10/10/10 11/11/11 12/12/12
f 13/13/13 14/14/14 15/15/15
f 16/16/16 13/13/13 15/15/15
f 13/13/13 16/16/16 17/17/17
f 16/16/16 10/10/10 17/17/17
f 10/10/10 16/16/16 18/18/18
f 11/11/11 10/10/10 18/18/18
f 18/18/18 19/19/19 11/11/11
f 19/19/19 18/18/18 20/20/20
f 18/18/18 21/21/21 20/20/20
f 21/21/21 18/18/18 16/16/16
f 15/15/15 21/21/21 16/16/16
f 21/21/21 15/15/15 22/22/22
f 15/15/15 23/23/23 22/22/22
f 23/23/23 15/15/15 14/14/14
f 14/14/14 13/13/13 24/24/24
f 25/25/25 26/26/26 27/27/27
f 26/26/26 25/25/25 28/28/28
f 29/29/29 28/28/28 25/25/25
f 29/29/29 30/30/30 31/31/31
f 30/30/30 29/29/29 25/25/25
f 25/25/25 32/32/32 30/30/30
f 25/25/25 33/33/33 32/32/32
f 33/33/33 25/25/25 27/27/27
f 27/27/27 34/34/34 33/33/33
f 27/27/27 35/35/35 34/34/34
f 35/35/35 27/27/27 26/26/26
f 26/26/26 36/36/36 35/35/35
f 26/26/26 37/37/37 36/36/36
f 37/37/37 26/26/26 28/28/28
f 28/28/28 38/38/38 37/37/37
f 28/28/28 39/39/39 38/38/38
f 39/39/39 28/28/28 40/40/40
f 28/28/28 29/29/29 40/40/40
f 41/41/41 40/40/40 29/29/29
f 40/40/40 41/41/41 42/42/42
f 40/40/40 43/43/43 39/39/39
f 40/40/40 44/44/44 43/43/43
f 44/44/44 40/40/40 42/42/42
f 42/42/42 45/45/45 44/44/44
f 42/42/42 46/46/46 45/45/45
f 46/46/46 42/42/42 41/41/41
f 41/41/41 47/47/47 46/46/46
f 41/41/41 48/48/48 47/47/47
f 48/48/48 41/41/41 29/29/29
f 29/29/29 31/31/31 48/48/48
f 49/49/49 50/50/50 51/51/51
f 50/50/50 49/49/49 52/52/52
f 53/53/53 54/54/54 55/55/55
f 55/55/55 51/51/51 53/53/53
f 51/51/51 55/55/55 56/56/56
f 51/51/51 56/56/56 57/57/57
f 57/57/57 49/49/49 51/51/51
f 49/49/49 57/57/57 58/58/58
f 49/49/49 58/58/58 59/59/59
f 59/59/59 52/52/52 49/49/49
f 52/52/52 59/59/59 60/60/60
f 52/52/52 60/60/60 61/61/61
f 61/61/61 50/50/50 52/52/52
f 50/50/50 61/61/61 62/62/62
f 50/50/50 62/62/62 63/63/63
f 63/63/63 64/64/64 50/50/50
f 64/64/64 51/51/51 50/50/50
f 51/51/51 64/64/64 53/53/53
f 65/65/65 53/53/53 64/64/64
f 53/53/53 65/65/65 66/66/66
f 64/64/64 63/63/63 67/67/67
f 64/64/64 67/67/67 68/68/68
f 68/68/68 65/65/65 64/64/64
f 65/65/65 68/68/68 69/69/69
f 65/65/65 69/69/69 70/70/70
f 70/70/70 66/66/66 65/65/65
f 66/66/66 70/70/70 71/71/71
f 66/66/66 71/71/71 72/72/72
f 72/72/72 53/53/53 66/66/66
f 53/53/53 72/72/72 54/54/54
f 73/73/73 74/74/74 75/75/75
f 76/76/76 75/75/75 74/74/74
f 77/77/77 78/78/78 79/79/79
f 78/78/78 77/77/77 80/80/80
f 81/81/81 80/80/80 77/77/77
f 80/80/80 81/81/81 82/82/82
f 73/73/73 82/82/82 81/81/81
f 73/73/73 83/83/83 82/82/82
f 83/83/83 73/73/73 75/75/75
f 84/84/84 83/83/83 75/75/75
f 75/75/75 76/76/76 84/84/84
f 85/85/85 84/84/84 76/76/76
f 83/83/83 84/84/84 86/86/86
f 86/86/86 82/82/82 83/83/83
f 82/82/82 86/86/86 80/80/80
f 73/73/73 81/81/81 87/87/87
f 77/77/77 87/87/87 81/81/81
f 80/80/80 88/88/88 78/78/78
f 80/80/80 89/89/89 88/88/88
f 89/89/89 80/80/80 86/86/86
f 86/86/86 90/90/90 89/89/89
f 86/86/86 91/91/91 90/90/90
f 91/91/91 86/86/86 84/84/84
f 84/84/84 92/92/92 91/91/91
f 84/84/84 85/85/85 92/92/92
f 89/89/89 93/93/93 94/94/94
f 93/93/93 89/89/89 90/90/90
f 90/90/90 95/95/95 93/93/93
f 95/95/95 90/90/90 91/91/91
f 91/91/91 96/96/96 95/95/95
f 96/96/96 91/91/91 92/92/92
f 92/92/92 97/97/97 96/96/96
f 97/97/97 92/92/92 85/85/85
f 85/85/85 98/98/98 97/97/97
f 43/99/43 96/96/96 39/100/39
f 97/97/97 39/100/39 96/96/96
f 39/100/39 97/97/97 38/101/38
f 98/98/98 38/101/38 97/97/97
f 38/101/38 98/98/98 37/102/37
f 48/103/48 99/104/99 47/105/47
f 100/106/100 47/105/47 99/104/99
f 47/105/47 100/106/100 46/107/46
f 94/94/94 46/107/46 100/106/100
f 46/107/46 94/94/94 45/108/45
f 93/93/93 45/108/45 94/94/94
f 45/108/45 93/93/93 44/109/44
f 95/95/95 44/109/44 93/93/93
f 44/109/44 95/95/95 43/99/43
f 96/96/96 43/99/43 95/95/95
f 87/87/87 77/77/77 101/110/101
f 102/111/102 101/110/101 77/77/77
f 77/77/77 79/79/79 102/111/102
f 103/112/103 102/111/102 79/79/79
f 79/79/79 99/104/99 103/112/103
f 99/104/99 79/79/79 78/78/78
f 78/78/78 100/106/100 99/104/99
f 100/106/100 78/78/78 88/88/88
f 88/88/88 94/94/94 100/106/100
f 94/94/94 88/88/88 89/89/89
f 34/113/34 104/114/104 33/115/33
f 105/116/105 33/115/33 104/114/104
f 33/115/33 105/116/105 32/117/32
f 106/118/106 32/117/32 105/116/105
f 32/117/32 106/118/106 30/119/30
f 107/120/107 30/119/30 106/118/106
f 30/119/30 107/120/107 31/121/31
f 103/112/103 31/121/31 107/120/107
f 31/121/31 103/112/103 48/103/48
f 99/104/99 48/103/48 103/112/103
f 108/122/108 107/120/107 106/118/106
f 106/118/106 109/123/109 108/122/108
f 109/123/109 106/118/106 105/116/105
f 105/116/105 110/124/110 109/123/109
f 110/124/110 105/116/105 104/114/104
f 104/114/104 111/125/111 110/124/110
f 111/125/111 104/114/104 112/126/112
f 112/126/112 113/127/113 111/125/111
f 113/127/113 112/126/112 114/128/114
f 114/128/114 115/129/115 113/127/113
f 102/111/102 103/112/103 107/120/107
f 107/120/107 108/122/108 102/111/102
f 101/110/101 102/111/102 108/122/108
f 101/110/101 108/122/108 109/123/109
f 109/123/109 116/130/116 101/110/101
f 116/130/116 109/123/109 110/124/110
f 116/130/116 110/124/110 111/125/111
f 111/125/111 117/131/117 116/130/116
f 117/131/117 111/125/111 113/127/113
f 117/131/117 113/127/113 115/129/115
f 118/132/118 101/110/101 116/130/116
f 116/130/116 119/133/119 118/132/118
f 119/133/119 116/130/116 117/131/117
f 115/129/115 114/128/114 120/134/120
f 120/134/120 121/135/121 115/129/115
f 76/76/76 115/129/115 121/135/121
f 115/129/115 76/76/76 117/131/117
f 74/74/74 117/131/117 76/76/76
f 117/131/117 74/74/74 119/133/119
f 74/74/74 73/73/73 119/133/119
f 73/73/73 118/132/118 119/133/119
f 118/132/118 73/73/73 87/87/87
f 101/110/101 118/132/118 87/87/87
f 76/76/76 121/135/121 85/85/85
f 98/98/98 85/85/85 121/135/121
f 121/135/121 120/134/120 98/98/98
f 120/134/120 37/102/37 98/98/98
f 37/102/37 120/134/120 36/136/36
f 114/128/114 36/136/36 120/134/120
f 36/136/36 114/128/114 35/137/35
f 112/126/112 35/137/35 114/128/114
f 35/137/35 112/126/112 34/113/34
f 104/114/104 34/113/34 112/126/112
f 122/138/122 123/139/123 124/140/124
f 124/140/124 125/141/125 122/138/122
f 126/142/126 122/138/122 125/141/125
f 126/142/126 127/143/127 122/138/122
f 128/144/128 129/145/129 130/146/130
f 129/145/129 128/144/128 131/147/131
f 131/147/131 132/148/132 129/145/129
f 132/148/132 131/147/131 133/149/133
f 126/142/126 133/149/133 131/147/131
f 128/144/128 126/142/126 131/147/131
f 126/142/126 128/144/128 127/143/127
f 130/146/130 127/143/127 128/144/128
f 127/143/127 130/146/130 123/139/123
f 123/139/123 122/138/122 127/143/127
f 132/148/132 134/150/134 135/151/135
f 132/148/132 135/151/135 136/152/136
f 136/152/136 129/145/129 132/148/132
f 129/145/129 136/152/136 137/153/137
f 129/145/129 137/153/137 138/154/138
f 138/154/138 130/146/130 129/145/129
f 130/146/130 138/154/138 139/155/139
f 130/146/130 139/155/139 140/156/140
f 140/156/140 123/139/123 130/146/130
f 123/139/123 140/156/140 141/157/141
f 123/139/123 141/157/141 142/158/142
f 142/158/142 124/140/124 123/139/123
f 124/140/124 142/158/142 143/159/143
f 139/155/139 144/160/144 145/161/145
f 145/161/145 140/156/140 139/155/139
f 140/156/140 145/161/145 146/162/146
f 146/162/146 141/157/141 140/156/140
f 141/157/141 146/162/146 147/163/147
f 147/163/147 142/158/142 141/157/141
f 142/158/142 147/163/147 148/164/148
f 148/164/148 143/159/143 142/158/142
f 143/159/143 148/164/148 149/165/149
f 149/165/149 150/166/150 143/159/143
f 68/167/68 148/164/148 69/168/69
f 147/163/147 69/168/69 148/164/148
f 69/168/69 147/163/147 70/169/70
f 146/162/146 70/169/70 147/163/147
f 70/169/70 146/162/146 71/170/71
f 145/161/145 71/170/71 146/162/146
f 71/170/71 145/161/145 72/171/72
f 144/160/144 72/171/72 145/161/145
f 72/171/72 144/160/144 54/172/54
f 151/173/151 54/172/54 144/160/144
f 134/150/134 152/174/152 153/175/153
f 153/175/153 135/151/135 134/150/134
f 135/151/135 153/175/153 154/176/154
f 154/176/154 136/152/136 135/151/135
f 136/152/136 154/176/154 155/177/155
f 155/177/155 137/153/137 136/152/136
f 137/153/137 155/177/155 151/173/151
f 151/173/151 138/154/138 137/153/137
f 138/154/138 151/173/151 144/160/144
f 144/160/144 139/155/139 138/154/138
f 54/172/54 151/173/151 55/178/55
f 155/177/155 55/178/55 151/173/151
f 55/178/55 155/177/155 56/179/56
f 154/176/154 56/179/56 155/177/155
f 56/179/56 154/176/154 57/180/57
f 153/175/153 57/180/57 154/176/154
f 57/180/57 153/175/153 58/181/58
f 152/174/152 58/181/58 153/175/153
f 58/181/58 152/174/152 59/182/59
f 156/183/156 59/182/59 152/174/152
f 157/184/157 158/185/158 159/186/159
f 159/186/159 160/187/160 157/184/157
f 160/187/160 159/186/159 161/188/161
f 161/188/161 162/189/162 160/187/160
f 162/189/162 161/188/161 163/190/163
f 163/190/163 164/191/164 162/189/162
f 164/191/164 163/190/163 156/183/156
f 156/183/156 165/192/165 164/191/164
f 165/192/165 156/183/156 152/174/152
f 152/174/152 134/150/134 165/192/165
f 59/182/59 156/183/156 60/193/60
f 163/190/163 60/193/60 156/183/156
f 60/193/60 163/190/163 61/194/61
f 161/188/161 61/194/61 163/190/163
f 61/194/61 161/188/161 62/195/62
f 159/186/159 62/195/62 161/188/161
f 62/195/62 159/186/159 63/196/63
f 158/185/158 63/196/63 159/186/159
f 63/196/63 158/185/158 67/197/67
f 166/198/166 162/189/162 164/191/164
f 166/198/166 160/187/160 162/189/162
f 160/187/160 166/198/166 167/199/167
f 167/199/167 157/184/157 160/187/160
f 167/199/167 150/166/150 157/184/157
f 158/185/158 157/184/157 150/166/150
f 150/166/150 149/165/149 158/185/158
f 149/165/149 67/197/67 158/185/158
f 67/197/67 149/165/149 68/167/68
f 148/164/148 68/167/68 149/165/149
f 168/200/168 165/192/165 134/150/134
f 168/200/168 164/191/164 165/192/165
f 164/191/164 168/200/168 166/198/166
f 169/201/169 166/198/166 168/200/168
f 166/198/166 169/201/169 170/202/170
f 170/202/170 167/199/167 166/198/166
f 124/140/124 143/159/143 150/166/150
f 150/166/150 167/199/167 124/140/124
f 125/141/125 124/140/124 167/199/167
f 167/199/167 170/202/170 125/141/125
f 170/202/170 126/142/126 125/141/125
f 126/142/126 170/202/170 169/201/169
f 133/149/133 126/142/126 169/201/169
f 168/200/168 133/149/133 169/201/169
f 133/149/133 168/200/168 132/148/132
f 134/150/134 132/148/132 168/200/168
