# Blender v2.92.0 OBJ File: ''
# www.blender.org
mtllib pilothvisor.mtl
o US_Headgear_Pilot_Cav.mo_US_Headgear_Pilot_Cav.md.001
v 1.403158 4.208831 6.057729
v 2.179658 4.690578 5.746276
v 1.410777 4.712357 5.989162
v 0.564638 4.724732 6.127192
v 0.558394 4.228035 6.196470
v 0.000000 4.726973 6.152185
v 1.383985 3.377672 6.085176
v 2.195316 4.188594 5.828948
v 0.551876 3.471623 6.223715
v 1.124572 2.602600 6.083754
v 2.173995 2.260636 5.686419
v 2.186034 3.267768 5.824245
v 3.322760 4.139589 5.187346
v 3.297188 3.150345 5.199259
v 3.166204 2.173403 5.110943
v 0.000000 2.495434 6.165376
v 0.430001 2.439219 6.140199
v 0.904169 2.055452 6.006145
v 1.410808 1.451549 5.717465
v 2.045991 1.092871 5.350999
v 3.002573 1.062947 4.784719
v 3.636755 1.229274 4.272052
v 4.008133 1.608444 4.071301
v 4.199448 2.099205 4.072180
v 4.391589 2.976598 4.063011
v 4.481296 3.983077 3.992657
v 4.473018 4.527437 3.926797
v 3.298338 4.635829 5.135678
v -0.558394 4.228035 6.196470
v 0.000000 3.518808 6.248530
v 0.000000 4.224971 6.236728
v -0.551876 3.471623 6.223715
v -1.403158 4.208831 6.057729
v -1.383985 3.377672 6.085176
v -1.124572 2.602600 6.083754
v -2.173995 2.260636 5.686419
v -2.186034 3.267768 5.824245
v -3.297188 3.150345 5.199259
v -3.322760 4.139589 5.187346
v -2.195316 4.188594 5.828948
v -3.166204 2.173403 5.110943
v -3.636755 1.229274 4.272052
v -4.008133 1.608444 4.071301
v -4.199448 2.099205 4.072180
v -4.391589 2.976598 4.063011
v -4.481296 3.983077 3.992657
v -4.473018 4.527437 3.926797
v -3.298338 4.635829 5.135678
v -2.179658 4.690578 5.746276
v -0.430001 2.439219 6.140199
v -0.904169 2.055452 6.006145
v -1.410808 1.451549 5.717465
v -2.045991 1.092871 5.350999
v -3.002573 1.062947 4.784719
v -1.410777 4.712357 5.989162
v -0.564638 4.724732 6.127192
vt 0.624500 0.833500
vt 0.701200 0.950500
vt 0.627400 0.960400
vt 0.548800 0.963300
vt 0.547400 0.836500
vt 0.497600 0.960900
vt 0.622100 0.626500
vt 0.698700 0.825600
vt 0.546400 0.646200
vt 0.600600 0.432600
vt 0.700200 0.348600
vt 0.697300 0.598900
vt 0.813500 0.804700
vt 0.809100 0.563200
vt 0.800800 0.321300
vt 0.498300 0.395000
vt 0.538100 0.385300
vt 0.583500 0.292000
vt 0.634800 0.138700
vt 0.699700 0.045400
vt 0.799300 0.029800
vt 0.872600 0.057100
vt 0.911600 0.149400
vt 0.927700 0.276400
vt 0.945300 0.499000
vt 0.958500 0.752200
vt 0.962400 0.890200
vt 0.814900 0.925100
vt 0.448000 0.832000
vt 0.497600 0.653800
vt 0.497600 0.832500
vt 0.448700 0.640900
vt 0.371600 0.828500
vt 0.373300 0.621100
vt 0.394800 0.426300
vt 0.293700 0.349100
vt 0.298600 0.598600
vt 0.186200 0.572500
vt 0.183700 0.815700
vt 0.298100 0.825800
vt 0.192000 0.331100
vt 0.116800 0.076700
vt 0.078700 0.172900
vt 0.064000 0.301800
vt 0.049000 0.526600
vt 0.039100 0.781200
vt 0.036600 0.922300
vt 0.183700 0.939400
vt 0.297100 0.949500
vt 0.457500 0.378400
vt 0.410600 0.282700
vt 0.356400 0.132300
vt 0.289600 0.044900
vt 0.189700 0.041000
vt 0.369600 0.954000
vt 0.446800 0.957800
vn 0.2251 0.0819 0.9709
vn 0.3848 0.1546 0.9099
vn 0.2335 0.1277 0.9639
vn 0.1044 0.1355 0.9853
vn 0.1111 0.0866 0.9900
vn -0.0000 0.1528 0.9883
vn 0.2391 -0.0367 0.9703
vn 0.3898 0.0783 0.9176
vn 0.0987 -0.0213 0.9949
vn 0.2132 -0.1450 0.9662
vn 0.3909 -0.2047 0.8974
vn 0.3930 -0.0692 0.9169
vn 0.6130 0.0522 0.7884
vn 0.6052 -0.0755 0.7925
vn 0.5802 -0.2238 0.7832
vn 0.0000 -0.0846 0.9964
vn 0.0843 -0.1134 0.9900
vn 0.2170 -0.2159 0.9520
vn 0.3084 -0.2557 0.9162
vn 0.4215 -0.2992 0.8560
vn 0.5622 -0.3083 0.7674
vn 0.6568 -0.2909 0.6957
vn 0.6696 -0.2732 0.6907
vn 0.6891 -0.2014 0.6961
vn 0.7118 -0.0800 0.6978
vn 0.7206 0.0403 0.6921
vn 0.7203 0.0964 0.6869
vn 0.6087 0.1170 0.7847
vn -0.1111 0.0866 0.9900
vn -0.0000 -0.0236 0.9997
vn -0.0000 0.0911 0.9958
vn -0.0987 -0.0213 0.9949
vn -0.2251 0.0819 0.9709
vn -0.2391 -0.0367 0.9703
vn -0.2132 -0.1450 0.9662
vn -0.3909 -0.2047 0.8974
vn -0.3930 -0.0692 0.9169
vn -0.6052 -0.0755 0.7925
vn -0.6130 0.0522 0.7884
vn -0.3898 0.0783 0.9176
vn -0.5802 -0.2238 0.7832
vn -0.6568 -0.2909 0.6957
vn -0.6696 -0.2732 0.6907
vn -0.6891 -0.2014 0.6961
vn -0.7118 -0.0800 0.6978
vn -0.7206 0.0403 0.6921
vn -0.7203 0.0964 0.6869
vn -0.6087 0.1170 0.7847
vn -0.3848 0.1546 0.9099
vn -0.0843 -0.1134 0.9900
vn -0.2170 -0.2159 0.9520
vn -0.3084 -0.2557 0.9162
vn -0.4215 -0.2992 0.8560
vn -0.5622 -0.3083 0.7674
vn -0.2335 0.1277 0.9639
vn -0.1044 0.1355 0.9853
usemtl M_Visor_INST
s 1
f 1/1/1 2/2/2 3/3/3
f 4/4/4 1/1/1 3/3/3
f 1/1/1 4/4/4 5/5/5
f 6/6/6 5/5/5 4/4/4
f 7/7/7 8/8/8 1/1/1
f 9/9/9 1/1/1 5/5/5
f 1/1/1 9/9/9 7/7/7
f 7/7/7 9/9/9 10/10/10
f 11/11/11 7/7/7 10/10/10
f 7/7/7 11/11/11 12/12/12
f 8/8/8 7/7/7 12/12/12
f 12/12/12 13/13/13 8/8/8
f 13/13/13 12/12/12 14/14/14
f 11/11/11 14/14/14 12/12/12
f 14/14/14 11/11/11 15/15/15
f 9/9/9 16/16/16 17/17/17
f 17/17/17 10/10/10 9/9/9
f 18/18/18 10/10/10 17/17/17
f 18/18/18 11/11/11 10/10/10
f 19/19/19 11/11/11 18/18/18
f 20/20/20 11/11/11 19/19/19
f 20/20/20 15/15/15 11/11/11
f 15/15/15 20/20/20 21/21/21
f 21/21/21 22/22/22 15/15/15
f 23/23/23 15/15/15 22/22/22
f 23/23/23 24/24/24 15/15/15
f 24/24/24 14/14/14 15/15/15
f 14/14/14 24/24/24 25/25/25
f 26/26/26 14/14/14 25/25/25
f 14/14/14 26/26/26 13/13/13
f 27/27/27 13/13/13 26/26/26
f 13/13/13 27/27/27 28/28/28
f 28/28/28 8/8/8 13/13/13
f 8/8/8 28/28/28 2/2/2
f 2/2/2 1/1/1 8/8/8
f 29/29/29 30/30/30 31/31/31
f 30/30/30 29/29/29 32/32/32
f 33/33/33 32/32/32 29/29/29
f 32/32/32 33/33/33 34/34/34
f 35/35/35 32/32/32 34/34/34
f 34/34/34 36/36/36 35/35/35
f 36/36/36 34/34/34 37/37/37
f 38/38/38 36/36/36 37/37/37
f 37/37/37 39/39/39 38/38/38
f 39/39/39 37/37/37 40/40/40
f 34/34/34 40/40/40 37/37/37
f 40/40/40 34/34/34 33/33/33
f 36/36/36 38/38/38 41/41/41
f 42/42/42 41/41/41 43/43/43
f 41/41/41 44/44/44 43/43/43
f 38/38/38 44/44/44 41/41/41
f 44/44/44 38/38/38 45/45/45
f 38/38/38 46/46/46 45/45/45
f 46/46/46 38/38/38 39/39/39
f 39/39/39 47/47/47 46/46/46
f 47/47/47 39/39/39 48/48/48
f 40/40/40 48/48/48 39/39/39
f 48/48/48 40/40/40 49/49/49
f 32/32/32 16/16/16 30/30/30
f 16/16/16 32/32/32 50/50/50
f 32/32/32 35/35/35 50/50/50
f 50/50/50 35/35/35 51/51/51
f 35/35/35 36/36/36 51/51/51
f 51/51/51 36/36/36 52/52/52
f 52/52/52 36/36/36 53/53/53
f 41/41/41 53/53/53 36/36/36
f 53/53/53 41/41/41 54/54/54
f 41/41/41 42/42/42 54/54/54
f 33/33/33 49/49/49 40/40/40
f 49/49/49 33/33/33 55/55/55
f 33/33/33 56/56/56 55/55/55
f 56/56/56 33/33/33 29/29/29
f 29/29/29 6/6/6 56/56/56
f 6/6/6 29/29/29 31/31/31
f 5/5/5 6/6/6 31/31/31
f 30/30/30 5/5/5 31/31/31
f 5/5/5 30/30/30 9/9/9
f 16/16/16 9/9/9 30/30/30
