# Blender v2.92.0 OBJ File: ''
# www.blender.org
mtllib risingdogts.mtl
o US_Gear_Pants_Pointman.mo_US_Gear_Pants_Pointman.md.002
v -0.065004 6.295475 7.031460
v -0.010509 6.738735 6.720020
v -0.113069 6.561062 6.887803
v 1.464139 5.562054 6.685123
v 1.409644 5.118793 6.996561
v 1.512204 5.296467 6.828778
v 1.097137 5.032619 7.217760
v 0.350919 5.357960 7.407523
v 1.048216 6.499569 6.309059
v 0.301997 6.824909 6.498821
v 0.638204 6.857670 6.299052
v 0.871121 6.741505 6.249133
v 0.760930 4.999859 7.417530
v 0.528014 5.116024 7.467448
v 0.306344 4.449848 7.086930
v 0.623225 4.859570 6.919132
v 0.521775 4.591663 7.025983
v -0.085979 4.454037 7.095948
v 0.711586 5.873669 6.522700
v 0.470232 6.330753 6.351642
v 0.657970 6.154736 6.414943
v 0.082945 6.392727 6.338071
v -0.626259 5.987186 6.514887
v -0.714620 4.973087 6.911320
v -0.473267 4.516003 7.082378
v -0.661005 4.692020 7.019076
v -0.309378 6.396908 6.347090
v -0.524809 6.255093 6.408036
v 1.337146 5.031979 6.860315
v 1.391641 5.475239 6.548876
v 1.439707 5.209652 6.692533
v 1.024640 4.945805 7.081514
v 0.975718 6.412754 6.172812
v 0.565707 6.770855 6.162806
v 0.798624 6.654690 6.112887
v 0.229500 6.738094 6.362576
v -0.137501 6.208660 6.895213
v 0.278422 5.271145 7.271277
v 0.688433 4.913044 7.281283
v 0.455517 5.029209 7.331202
v -0.083006 6.651920 6.583774
v -0.185567 6.474247 6.751556
v -0.468790 4.580112 7.247378
v -0.710144 5.037205 7.076321
v -0.656528 4.756130 7.184077
v -0.081503 4.518147 7.260950
v 0.627701 4.923687 7.084134
v 0.310820 4.513966 7.251931
v 0.526252 4.655773 7.190985
v 0.716062 5.937778 6.687701
v -0.621783 6.051296 6.679888
v -0.304902 6.461018 6.512090
v -0.520333 6.319210 6.573037
v 0.087421 6.456837 6.503072
v 0.474709 6.394871 6.516644
v 0.662447 6.218845 6.579944
v 0.526252 4.655773 7.190985
v 0.306344 4.449848 7.086930
v 0.521775 4.591663 7.025983
v 0.627701 4.923687 7.084134
v 0.623225 4.859570 6.919132
v 0.716062 5.937778 6.687701
v 0.711586 5.873669 6.522700
v 0.662447 6.218845 6.579944
v 0.657970 6.154736 6.414943
v 0.474709 6.394871 6.516644
v 0.470232 6.330753 6.351642
v 0.087421 6.456837 6.503072
v 0.082945 6.392727 6.338071
v -0.304902 6.461018 6.512090
v -0.309378 6.396908 6.347090
v -0.520333 6.319210 6.573037
v -0.524809 6.255093 6.408036
v -0.621783 6.051296 6.679888
v -0.626259 5.987186 6.514887
v -0.710144 5.037205 7.076321
v -0.714620 4.973087 6.911320
v -0.656528 4.756130 7.184077
v -0.661005 4.692020 7.019076
v -0.468790 4.580112 7.247378
v -0.473267 4.516003 7.082378
v -0.081503 4.518147 7.260950
v -0.085979 4.454037 7.095948
v 0.310820 4.513966 7.251931
v 0.301997 6.824909 6.498821
v 0.565707 6.770855 6.162806
v 0.229500 6.738094 6.362576
v -0.010509 6.738735 6.720020
v -0.083006 6.651920 6.583774
v -0.113069 6.561062 6.887803
v -0.185567 6.474247 6.751556
v -0.065004 6.295475 7.031460
v -0.137501 6.208660 6.895213
v 0.350919 5.357960 7.407523
v 0.278422 5.271145 7.271277
v 0.528014 5.116024 7.467448
v 0.455517 5.029209 7.331202
v 0.760930 4.999859 7.417530
v 0.688433 4.913044 7.281283
v 1.097137 5.032619 7.217760
v 1.024640 4.945805 7.081514
v 1.409644 5.118793 6.996561
v 1.337146 5.031979 6.860315
v 1.512204 5.296467 6.828778
v 1.439707 5.209652 6.692533
v 1.464139 5.562054 6.685123
v 1.391641 5.475239 6.548876
v 1.048216 6.499569 6.309059
v 0.975718 6.412754 6.172812
v 0.871121 6.741505 6.249133
v 0.798624 6.654690 6.112887
v 0.638204 6.857670 6.299052
v -3.002559 14.332195 -1.053775
v -3.564275 14.447262 0.455829
v -2.997221 14.517056 -1.048126
v -3.567245 14.264980 0.418388
v -3.484080 13.428188 1.957729
v -3.543258 13.295994 1.843478
v -2.977913 11.465763 3.560721
v -3.042127 11.345013 3.437845
v -1.704924 8.934772 5.174777
v -1.792621 8.825253 5.055896
v -0.049092 6.322247 6.417596
v -0.147447 6.230907 6.290640
v 0.077997 6.360592 6.289869
v -1.565007 8.951374 5.055727
v -2.813468 11.464741 3.475471
v -3.309786 13.393505 1.904207
v -3.375748 14.428066 0.490027
v -2.849538 14.515766 -0.923135
v -1.660261 14.275227 -1.923188
v -1.614807 14.339405 -1.753877
v -0.014823 14.351955 -1.972723
v -0.026280 14.405598 -1.797140
v 1.637110 14.623249 -1.750174
v 1.573774 14.647343 -1.574710
v 2.879593 14.726269 -0.914167
v 2.737476 14.759716 -0.787799
v 3.511646 14.191257 0.419543
v 3.516745 14.359509 0.494578
v 2.859245 14.544994 -0.890901
v 1.637204 14.439487 -1.729439
v 0.000370 14.176151 -1.918599
v -1.650197 14.095753 -1.865955
v 3.328683 14.345707 0.529035
v 3.402393 13.339840 1.897517
v 3.227770 13.314335 1.840473
v 2.818057 11.414738 3.439841
v 2.657418 11.408283 3.349649
v 1.711644 9.034260 5.181102
v 1.558886 9.045094 5.078983
v 0.442233 6.746784 6.681782
v 0.299656 6.776745 6.568601
v 0.312274 6.528141 6.670418
v 0.522793 6.644421 6.551248
v 1.785215 8.918606 5.058552
v 2.890688 11.296871 3.318876
v 3.457716 13.208347 1.780604
vt 0.473100 0.911100
vt 0.483600 0.928600
vt 0.476100 0.922200
vt 0.523900 0.869900
vt 0.513200 0.852200
vt 0.521000 0.858600
vt 0.498500 0.851100
vt 0.473100 0.869900
vt 0.523900 0.911100
vt 0.498500 0.929900
vt 0.513200 0.928600
vt 0.521000 0.922200
vt 0.483600 0.852200
vt 0.476100 0.858600
vt 0.503400 0.777100
vt 0.495600 0.790300
vt 0.497800 0.781900
vt 0.514600 0.776100
vt 0.495600 0.821200
vt 0.503400 0.834500
vt 0.497800 0.829600
vt 0.514600 0.835300
vt 0.533700 0.821200
vt 0.533700 0.790300
vt 0.525400 0.777100
vt 0.531200 0.781900
vt 0.525400 0.834500
vt 0.531200 0.829600
vt 0.503400 0.777100
vt 0.495600 0.790300
vt 0.497800 0.781900
vt 0.514600 0.776100
vt 0.495600 0.821200
vt 0.503400 0.834500
vt 0.497800 0.829600
vt 0.514600 0.835300
vt 0.533700 0.821200
vt 0.533700 0.790300
vt 0.525400 0.777100
vt 0.531200 0.781900
vt 0.525400 0.834500
vt 0.531200 0.829600
vt 0.483600 0.852200
vt 0.473100 0.869900
vt 0.476100 0.858600
vt 0.498500 0.851100
vt 0.523900 0.869900
vt 0.513200 0.852200
vt 0.521000 0.858600
vt 0.523900 0.911100
vt 0.473100 0.911100
vt 0.483600 0.928600
vt 0.476100 0.922200
vt 0.498500 0.929900
vt 0.513200 0.928600
vt 0.521000 0.922200
vt 0.522500 0.857500
vt 0.518100 0.842500
vt 0.529300 0.853100
vt 0.525900 0.869800
vt 0.533700 0.868800
vt 0.525400 0.911100
vt 0.533200 0.912900
vt 0.522500 0.923300
vt 0.529300 0.928000
vt 0.514200 0.930700
vt 0.518100 0.938200
vt 0.498500 0.932400
vt 0.498500 0.940700
vt 0.482200 0.930700
vt 0.478800 0.938200
vt 0.474100 0.923300
vt 0.467300 0.928000
vt 0.471400 0.911100
vt 0.463100 0.912400
vt 0.471400 0.869600
vt 0.463100 0.868300
vt 0.474100 0.857400
vt 0.467000 0.852700
vt 0.482700 0.849900
vt 0.479000 0.842200
vt 0.498500 0.848800
vt 0.498500 0.840500
vt 0.514200 0.850000
vt 0.498500 0.932400
vt 0.518100 0.938200
vt 0.498500 0.940700
vt 0.482200 0.930700
vt 0.478800 0.938200
vt 0.474100 0.923300
vt 0.467300 0.928000
vt 0.471400 0.911100
vt 0.463100 0.912400
vt 0.471400 0.869600
vt 0.463100 0.868300
vt 0.474100 0.857400
vt 0.467000 0.852700
vt 0.482700 0.849900
vt 0.479000 0.842200
vt 0.498500 0.848800
vt 0.498500 0.840500
vt 0.514200 0.850000
vt 0.518100 0.842500
vt 0.522500 0.857500
vt 0.529300 0.853100
vt 0.525900 0.869800
vt 0.533700 0.868800
vt 0.525400 0.911100
vt 0.533200 0.912900
vt 0.522500 0.923300
vt 0.529300 0.928000
vt 0.514200 0.930700
vt 0.740200 0.994400
vt 0.719200 0.992200
vt 0.740200 0.992200
vt 0.719200 0.994400
vt 0.695300 0.992200
vt 0.695300 0.994400
vt 0.660200 0.992200
vt 0.660200 0.994400
vt 0.616200 0.992200
vt 0.616200 0.994400
vt 0.570800 0.992200
vt 0.570800 0.994400
vt 0.570800 0.990000
vt 0.616200 0.990000
vt 0.660200 0.990000
vt 0.695300 0.990000
vt 0.719200 0.990000
vt 0.740200 0.990000
vt 0.761700 0.992200
vt 0.761700 0.990000
vt 0.784200 0.992200
vt 0.784200 0.990000
vt 0.806600 0.992200
vt 0.806600 0.990000
vt 0.827100 0.992200
vt 0.827100 0.990000
vt 0.848100 0.994400
vt 0.848100 0.992200
vt 0.827100 0.994400
vt 0.806600 0.994400
vt 0.784200 0.994400
vt 0.761700 0.994400
vt 0.848100 0.990000
vt 0.871100 0.992200
vt 0.871100 0.990000
vt 0.905300 0.992200
vt 0.905300 0.990000
vt 0.947800 0.992200
vt 0.947800 0.990000
vt 0.988800 0.992200
vt 0.989300 0.990000
vt 0.993700 0.992200
vt 0.989300 0.994400
vt 0.947800 0.994400
vt 0.905300 0.994400
vt 0.871100 0.994400
vn 0.4094 0.4903 0.7694
vn -0.0253 -0.3621 -0.9318
vn -0.4094 -0.4903 -0.7694
vn 0.0253 0.3621 0.9318
vn 0.0253 0.3620 0.9318
vn 0.7995 -0.5669 0.1986
vn 0.3048 -0.8905 0.3378
vn 0.9778 -0.2030 0.0523
vn 0.9985 0.0353 -0.0408
vn 0.8858 0.4239 -0.1887
vn 0.4544 0.8261 -0.3333
vn 0.0809 0.9283 -0.3629
vn -0.3048 0.8905 -0.3377
vn -0.7995 0.5669 -0.1986
vn -0.9778 0.2030 -0.0523
vn -0.9985 -0.0353 0.0408
vn -0.8858 -0.4239 0.1887
vn -0.4544 -0.8261 0.3333
vn -0.0809 -0.9283 0.3629
vn -0.3807 0.8582 -0.3443
vn -0.0362 0.8514 -0.5233
vn -0.6679 0.7356 -0.1133
vn -0.9044 0.3294 0.2713
vn -0.8711 -0.0406 0.4894
vn -0.7734 -0.2609 0.5778
vn -0.4980 -0.5865 0.6387
vn -0.4980 -0.5866 0.6387
vn 0.0362 -0.8514 0.5233
vn 0.3807 -0.8582 0.3443
vn 0.6679 -0.7356 0.1133
vn 0.9044 -0.3294 -0.2713
vn 0.8711 0.0406 -0.4894
vn 0.7734 0.2609 -0.5778
vn 0.4980 0.5866 -0.6387
vn 0.4980 0.5865 -0.6387
vn -0.7577 0.0436 -0.6511
vn -0.6735 0.7282 0.1268
vn -0.5477 0.6799 -0.4877
vn -0.9897 0.0518 -0.1334
vn -0.4404 0.6320 0.6376
vn -0.9414 0.1703 0.2910
vn -0.3987 0.4343 0.8077
vn -0.8846 -0.0011 0.4664
vn -0.2301 0.3712 0.8996
vn -0.7675 -0.0764 0.6365
vn -0.1692 0.3339 0.9273
vn -0.7293 -0.1442 0.6688
vn 0.4675 0.6036 0.6459
vn 0.4642 0.6177 0.6348
vn 0.3595 0.6317 0.6868
vn 0.3204 0.7238 0.6112
vn 0.0269 0.9352 0.3531
vn 0.0289 0.9989 -0.0372
vn -0.2677 0.3705 -0.8894
vn -0.0720 0.9394 -0.3351
vn -0.0039 0.4358 -0.9000
vn -0.0824 0.9528 -0.2922
vn 0.2366 0.5830 -0.7773
vn -0.0550 0.9858 -0.1585
vn 0.6422 0.5698 -0.5128
vn 0.1737 0.9837 -0.0454
vn 0.9814 0.0425 -0.1872
vn 0.7224 0.6680 0.1787
vn 0.7419 -0.1640 -0.6501
vn 0.3594 -0.1103 -0.9266
vn 0.0696 -0.2884 -0.9550
vn -0.2971 -0.2934 -0.9086
vn 0.0075 0.8901 0.4558
vn 0.4591 0.5865 0.6673
vn -0.3124 0.7069 0.6346
vn 0.3603 0.4744 0.8032
vn -0.3927 0.6474 0.6532
vn 0.3260 0.4204 0.8467
vn -0.3894 0.6509 0.6517
vn 0.1811 0.1827 0.9663
vn -0.4650 0.5130 0.7215
vn 0.0355 -0.0729 0.9967
vn 0.7481 -0.2128 0.6286
vn 0.8364 -0.0466 0.5461
vn 0.8736 0.0373 0.4853
vn 0.9462 0.1153 0.3023
usemtl M_US_Gear2_INST.004
s 1
f 1/1/1 2/2/1 3/3/1
f 4/4/1 5/5/1 6/6/1
f 5/5/1 4/4/1 7/7/1
f 4/4/1 8/8/1 7/7/1
f 9/9/1 8/8/1 4/4/1
f 8/8/1 9/9/1 1/1/1
f 9/9/1 10/10/1 1/1/1
f 2/2/1 1/1/1 10/10/1
f 11/11/1 9/9/1 12/12/1
f 9/9/1 11/11/1 10/10/1
f 13/13/1 8/8/1 14/14/1
f 8/8/1 13/13/1 7/7/1
f 15/15/2 16/16/2 17/17/2
f 16/16/2 15/15/2 18/18/2
f 19/19/2 20/20/2 21/21/2
f 20/20/2 19/19/2 22/22/2
f 23/23/2 22/22/2 19/19/2
f 16/16/2 23/23/2 19/19/2
f 23/23/2 16/16/2 24/24/2
f 16/16/2 18/18/2 24/24/2
f 25/25/2 24/24/2 18/18/2
f 24/24/2 25/25/2 26/26/2
f 27/27/2 23/23/2 28/28/2
f 23/23/2 27/27/2 22/22/2
f 29/29/3 30/30/3 31/31/3
f 30/30/3 29/29/3 32/32/3
f 33/33/3 34/34/3 35/35/3
f 34/34/3 33/33/3 36/36/3
f 37/37/3 36/36/3 33/33/3
f 30/30/3 37/37/3 33/33/3
f 37/37/3 30/30/3 38/38/3
f 30/30/3 32/32/3 38/38/3
f 39/39/3 38/38/3 32/32/3
f 38/38/3 39/39/3 40/40/3
f 41/41/3 37/37/3 42/42/3
f 37/37/3 41/41/3 36/36/3
f 43/43/4 44/44/4 45/45/5
f 44/44/4 43/43/4 46/46/4
f 47/47/4 48/48/4 49/49/4
f 48/48/4 47/47/4 46/46/4
f 47/47/4 44/44/4 46/46/4
f 50/50/4 44/44/4 47/47/4
f 44/44/4 50/50/4 51/51/4
f 51/51/4 52/52/4 53/53/4
f 52/52/4 51/51/4 54/54/4
f 50/50/4 54/54/4 51/51/4
f 50/50/4 55/55/4 54/54/4
f 55/55/4 50/50/4 56/56/4
f 57/57/6 58/58/7 59/59/6
f 59/59/6 60/60/8 57/57/6
f 60/60/8 59/59/6 61/61/8
f 61/61/8 62/62/9 60/60/8
f 62/62/9 61/61/8 63/63/9
f 63/63/9 64/64/10 62/62/9
f 64/64/10 63/63/9 65/65/10
f 65/65/10 66/66/11 64/64/10
f 66/66/11 65/65/10 67/67/11
f 67/67/11 68/68/12 66/66/11
f 68/68/12 67/67/11 69/69/12
f 69/69/12 70/70/13 68/68/12
f 70/70/13 69/69/12 71/71/13
f 71/71/13 72/72/14 70/70/13
f 72/72/14 71/71/13 73/73/14
f 73/73/14 74/74/15 72/72/14
f 74/74/15 73/73/14 75/75/15
f 75/75/15 76/76/16 74/74/15
f 76/76/16 75/75/15 77/77/16
f 77/77/16 78/78/17 76/76/16
f 78/78/17 77/77/16 79/79/17
f 79/79/17 80/80/18 78/78/17
f 80/80/18 79/79/17 81/81/18
f 81/81/18 82/82/19 80/80/18
f 82/82/19 81/81/18 83/83/19
f 83/83/19 84/84/7 82/82/19
f 84/84/7 83/83/19 58/58/7
f 58/58/7 57/57/6 84/84/7
f 85/85/20 86/86/21 87/87/20
f 87/87/20 88/88/22 85/85/20
f 88/88/22 87/87/20 89/89/22
f 89/89/22 90/90/23 88/88/22
f 90/90/23 89/89/22 91/91/23
f 91/91/23 92/92/24 90/90/23
f 92/92/24 91/91/23 93/93/24
f 93/93/24 94/94/25 92/92/24
f 94/94/25 93/93/24 95/95/25
f 95/95/25 96/96/26 94/94/25
f 96/96/26 95/95/25 97/97/27
f 97/97/27 98/98/28 96/96/26
f 98/98/28 97/97/27 99/99/28
f 99/99/28 100/100/29 98/98/28
f 100/100/29 99/99/28 101/101/29
f 101/101/29 102/102/30 100/100/29
f 102/102/30 101/101/29 103/103/30
f 103/103/30 104/104/31 102/102/30
f 104/104/31 103/103/30 105/105/31
f 105/105/31 106/106/32 104/104/31
f 106/106/32 105/105/31 107/107/32
f 107/107/32 108/108/33 106/106/32
f 108/108/33 107/107/32 109/109/33
f 109/109/33 110/110/34 108/108/33
f 110/110/34 109/109/33 111/111/35
f 111/111/35 112/112/21 110/110/34
f 112/112/21 111/111/35 86/86/21
f 86/86/21 85/85/20 112/112/21
f 113/113/36 114/114/37 115/115/38
f 114/114/37 113/113/36 116/116/39
f 116/116/39 117/117/40 114/114/37
f 117/117/40 116/116/39 118/118/41
f 118/118/41 119/119/42 117/117/40
f 119/119/42 118/118/41 120/120/43
f 120/120/43 121/121/44 119/119/42
f 121/121/44 120/120/43 122/122/45
f 123/123/46 122/122/45 124/124/47
f 122/122/45 123/123/46 121/121/44
f 125/125/48 121/121/44 123/123/46
f 121/121/44 125/125/48 126/126/49
f 126/126/49 119/119/42 121/121/44
f 119/119/42 126/126/49 127/127/50
f 127/127/50 117/117/40 119/119/42
f 117/117/40 127/127/50 128/128/51
f 128/128/51 114/114/37 117/117/40
f 114/114/37 128/128/51 129/129/52
f 129/129/52 115/115/38 114/114/37
f 115/115/38 129/129/52 130/130/53
f 130/130/53 131/131/54 115/115/38
f 131/131/54 130/130/53 132/132/55
f 132/132/55 133/133/56 131/131/54
f 133/133/56 132/132/55 134/134/57
f 134/134/57 135/135/58 133/133/56
f 135/135/58 134/134/57 136/136/59
f 136/136/59 137/137/60 135/135/58
f 137/137/60 136/136/59 138/138/61
f 139/139/62 137/137/60 140/140/63
f 137/137/60 139/139/62 141/141/64
f 141/141/64 135/135/58 137/137/60
f 135/135/58 141/141/64 142/142/65
f 142/142/65 133/133/56 135/135/58
f 133/133/56 142/142/65 143/143/66
f 143/143/66 131/131/54 133/133/56
f 131/131/54 143/143/66 144/144/67
f 144/144/67 115/115/38 131/131/54
f 115/115/38 144/144/67 113/113/36
f 138/138/61 140/140/63 137/137/60
f 140/140/63 138/138/61 145/145/68
f 145/145/68 146/146/69 140/140/63
f 146/146/69 145/145/68 147/147/70
f 147/147/70 148/148/71 146/146/69
f 148/148/71 147/147/70 149/149/72
f 149/149/72 150/150/73 148/148/71
f 150/150/73 149/149/72 151/151/74
f 151/151/74 152/152/75 150/150/73
f 152/152/75 151/151/74 153/153/76
f 152/152/75 153/153/76 154/154/77
f 155/155/78 152/152/75 154/154/77
f 155/155/78 150/150/73 152/152/75
f 150/150/73 155/155/78 156/156/79
f 156/156/79 148/148/71 150/150/73
f 148/148/71 156/156/79 157/157/80
f 157/157/80 146/146/69 148/148/71
f 146/146/69 157/157/80 158/158/81
f 158/158/81 140/140/63 146/146/69
f 140/140/63 158/158/81 139/139/62
