# Blender v2.92.0 OBJ File: ''
# www.blender.org
mtllib slouchmadden1.mtl
o AUS_Headgear_Slouch.mo_AUS_Headgear_Slouch.md.002
v 4.480455 7.059204 0.758629
v 3.202106 8.799240 -0.701517
v 3.842640 7.988586 0.586287
v 4.697667 6.639648 -0.119177
v 4.743446 6.426361 -1.438781
v 3.232907 8.655754 -1.589268
v 3.878368 7.592935 -2.526335
v 4.561875 6.596971 -2.341648
vt 0.224200 0.793500
vt 0.367900 0.725300
vt 0.293700 0.793500
vt 0.204100 0.736100
vt 0.204100 0.654500
vt 0.367900 0.670400
vt 0.301500 0.602300
vt 0.227100 0.602300
vn 0.8282 0.5570 -0.0613
usemtl M_AUS_Headgear_Slouch_INST.003
s 1
f 1/1/1 2/2/1 3/3/1
f 4/4/1 2/2/1 1/1/1
f 5/5/1 2/2/1 4/4/1
f 5/5/1 6/6/1 2/2/1
f 5/5/1 7/7/1 6/6/1
f 5/5/1 8/8/1 7/7/1
