# Blender v3.0.1 OBJ File: ''
# www.blender.org
mtllib UShelmet4.mtl
o US_eyewear_drivergoggles.mo_US_eyewear_drivergoggles.md
v -3.047193 2.041259 4.979548
v -2.972229 2.832278 5.043066
v -3.064738 2.482258 4.964679
v -2.944744 1.694506 5.065722
v -2.751143 3.072459 5.216127
v -2.690671 1.433662 5.254706
v -2.298680 1.254821 5.506831
v -2.143456 3.404912 5.594145
v -1.745093 1.263690 5.774730
v -1.244396 3.587368 5.947061
v -1.232049 1.466587 5.948076
v -0.797238 1.814765 6.049582
v -0.579522 2.103274 6.079947
v -0.400657 2.452181 6.099327
v -0.502169 3.643071 6.103240
v -0.243728 3.340004 6.110445
v 0.000000 3.271504 6.116614
v 0.000000 2.452181 6.116614
v 0.400657 2.452181 6.099327
v 0.243728 3.340004 6.110445
v 0.502169 3.643071 6.103240
v 1.244396 3.587368 5.947061
v 0.579522 2.103274 6.079947
v 0.797238 1.814765 6.049582
v 1.232049 1.466587 5.948076
v 1.745093 1.263690 5.774730
v 2.143456 3.404912 5.594145
v 2.298680 1.254821 5.506831
v 2.751143 3.072459 5.216127
v 2.690671 1.433662 5.254706
v 2.944744 1.694506 5.065722
v 2.972229 2.832278 5.043066
v 3.047193 2.041259 4.979548
v 3.064738 2.482258 4.964679
vt 0.050100 0.894500
vt 0.163700 0.981500
vt 0.103600 0.952900
vt 0.022600 0.833700
vt 0.229700 0.975800
vt 0.029000 0.760400
vt 0.064800 0.678200
vt 0.362300 0.926000
vt 0.143300 0.600600
vt 0.507300 0.825300
vt 0.237400 0.556900
vt 0.338100 0.543500
vt 0.402800 0.551800
vt 0.470000 0.572800
vt 0.609900 0.735400
vt 0.603500 0.664100
vt 0.625500 0.624300
vt 0.520500 0.521200
vt 0.570800 0.470200
vt 0.665000 0.601600
vt 0.736300 0.606700
vt 0.824200 0.502200
vt 0.548300 0.403300
vt 0.539100 0.338900
vt 0.550300 0.237800
vt 0.592300 0.142600
vt 0.921900 0.355500
vt 0.668500 0.062500
vt 0.969200 0.221700
vt 0.750000 0.025400
vt 0.823200 0.017600
vt 0.973600 0.155800
vt 0.884300 0.043900
vt 0.943800 0.096200
vn -0.6445 -0.0003 0.7646
vn -0.6210 0.0006 0.7838
vn -0.6465 0.0000 0.7629
vn -0.6063 -0.0026 0.7952
vn -0.5575 0.0022 0.8302
vn -0.5585 -0.0011 0.8295
vn -0.4840 -0.0023 0.8751
vn -0.4346 0.0064 0.9006
vn -0.3848 -0.0015 0.9230
vn -0.2718 -0.0006 0.9623
vn -0.2900 -0.0012 0.9570
vn -0.2059 0.0047 0.9786
vn -0.1566 0.0182 0.9875
vn -0.1139 0.0067 0.9935
vn -0.1571 -0.0166 0.9874
vn -0.0322 -0.0068 0.9995
vn -0.0000 -0.0058 1.0000
vn 0.0000 0.0000 1.0000
vn 0.1139 0.0067 0.9935
vn 0.0322 -0.0068 0.9995
vn 0.1571 -0.0166 0.9874
vn 0.2718 -0.0006 0.9623
vn 0.1566 0.0182 0.9875
vn 0.2059 0.0047 0.9786
vn 0.2900 -0.0012 0.9570
vn 0.3848 -0.0015 0.9230
vn 0.4346 0.0064 0.9006
vn 0.4840 -0.0023 0.8751
vn 0.5575 0.0022 0.8302
vn 0.5585 -0.0011 0.8295
vn 0.6063 -0.0026 0.7952
vn 0.6210 0.0006 0.7838
vn 0.6445 -0.0003 0.7646
vn 0.6465 0.0000 0.7629
usemtl M_Visor_INST
s 1
f 1/1/1 2/2/2 3/3/3
f 2/2/2 1/1/1 4/4/4
f 4/4/4 5/5/5 2/2/2
f 5/5/5 4/4/4 6/6/6
f 7/7/7 5/5/5 6/6/6
f 5/5/5 7/7/7 8/8/8
f 9/9/9 8/8/8 7/7/7
f 8/8/8 9/9/9 10/10/10
f 9/9/9 11/11/11 10/10/10
f 12/12/12 10/10/10 11/11/11
f 10/10/10 12/12/12 13/13/13
f 14/14/14 10/10/10 13/13/13
f 10/10/10 14/14/14 15/15/15
f 15/15/15 14/14/14 16/16/16
f 14/14/14 17/17/17 16/16/16
f 17/17/17 14/14/14 18/18/18
f 19/19/19 17/17/17 18/18/18
f 17/17/17 19/19/19 20/20/20
f 20/20/20 19/19/19 21/21/21
f 21/21/21 19/19/19 22/22/22
f 23/23/23 22/22/22 19/19/19
f 23/23/23 24/24/24 22/22/22
f 25/25/25 22/22/22 24/24/24
f 22/22/22 25/25/25 26/26/26
f 22/22/22 26/26/26 27/27/27
f 28/28/28 27/27/27 26/26/26
f 28/28/28 29/29/29 27/27/27
f 29/29/29 28/28/28 30/30/30
f 31/31/31 29/29/29 30/30/30
f 29/29/29 31/31/31 32/32/32
f 33/33/33 32/32/32 31/31/31
f 32/32/32 33/33/33 34/34/34
